<?xml version="1.0" encoding="utf-8"?>
<!-- Generator: Adobe Illustrator 27.9.0, SVG Export Plug-In . SVG Version: 6.00 Build 0)  -->
<svg version="1.1" id="Calque_1" xmlns="http://www.w3.org/2000/svg" xmlns:xlink="http://www.w3.org/1999/xlink" x="0px" y="0px"
	 viewBox="0 0 595.3 841.9" style="enable-background:new 0 0 595.3 841.9;" xml:space="preserve">
<style type="text/css">
	.st0{fill:#FFFFFF;}
</style>
<g>
	<path d="M293,319.6c-1.8-0.1-3.7-0.2-5.5-0.2c-25.3,0-48.2,10.7-68.2,32.1c-18.2,19.4-24.3,35-24.2,53.9c0,10.1,1.8,21.1,4.5,34.1
		c5,24.5,19.5,48.1,39.9,64.9c15.6,12.8,33,19.4,51.3,19.5c9.5,0.1,19.2-1.6,29.1-5c31.9-11,62.4-42.5,74.2-76.6
		c3.7-10.8,5.5-21.3,5.5-31.3c-0.1-24.4-11.3-45.9-32.6-61.2C341.1,331.1,316.2,321,293,319.6z"/>
	<g>
		<path class="st0" d="M256.6,421.9h-7l0,0.2c-0.1,1.4-0.9,13.3-11.5,13.3c-9.5,0-14.4-8.5-14.4-25.4c0-16.9,4.9-25.4,14.4-25.4
			c10.9,0,11.5,12.7,11.5,13.3l0,0.2h7c0.6,0,1.3-0.3,1.7-0.7c0.4-0.4,0.7-1,0.6-1.6c-0.1-3.3-1.8-19.8-21-19.8
			c-15.5,0-23.7,11.8-23.7,34c0,22.3,8.2,34.1,23.7,34.1c18.4,0,20.7-15.1,21-19.7c0-0.6-0.2-1.2-0.6-1.7
			C257.9,422.2,257.2,421.9,256.6,421.9z"/>
		<path class="st0" d="M365.5,406L365.5,406l-6-2.6c-5.8-2.6-7.9-5-7.9-9.5c0-5.8,4.2-9.7,10.6-9.7c3.7,0,6.8,0.8,10.6,4.6l0.2,0.2
			l3.2-2.9c1.9-1.7,1.3-3.3,0.5-4.3c-3.1-3.7-8.2-5.7-14.2-5.7c-11.6,0-20.1,7.6-20.1,18c0,10.3,6.5,14.6,13.5,17.7l6.2,2.8
			c6.2,2.8,9.1,5.1,9.1,11.1c0,8.1-7.3,10.3-11.7,10.3c-3.7,0-7.9-0.8-13-6.6l-0.2-0.2l-3.4,2.9c-1.7,1.5-1.7,2.8-0.1,5
			c4.6,5.9,11.4,7.2,16.3,7.2c10.5,0,21.2-6.5,21.2-18.8C380.4,414.6,374.5,409.8,365.5,406z"/>
		<path class="st0" d="M306,395.4c0-10.5-8.5-19.4-19.1-19.4c-5,0-9.5,1.9-12.8,5v-3.6h-6.3c-1.9,0-2.6,1.2-2.6,2.7v61.4
			c0,1.7,1.1,2.7,2.6,2.7h6.3c0,0,0-48.3,0-48.3c0-6.3,5.1-11.5,11.5-11.5c6.3,0,11.5,5.1,11.5,11.5c0,0,0,48.3,0,48.3h6.3
			c1.7,0,2.7-1,2.7-2.6C306,441.5,306,395.5,306,395.4z"/>
		<path class="st0" d="M342.3,380.6c0.3-0.4,0.5-0.9,0.5-1.5c0-1.1-0.7-1.9-1.6-2.3c-1.8-0.6-3.8-1-5.8-1c-5,0-9.5,1.9-12.8,5v-3.6
			h-6.3c-1.9,0-2.6,1.2-2.6,2.7v61.4c0,1.7,1.1,2.7,2.6,2.7h6.3c0,0,0-48.3,0-48.3c0-6.3,5.1-11.5,11.5-11.5c1.7,0,3.2,0.4,4.7,1
			L342.3,380.6L342.3,380.6z"/>
	</g>
</g>
</svg>
