<svg xmlns="http://www.w3.org/2000/svg" viewBox="0 0 100 100">
  <!-- Background Circle (White) -->
  <circle cx="50" cy="50" r="50" fill="white"/>
  
  <!-- Blue Wedges -->
  <path d="M 50 50 L 99.81 54.36 A 50 50 0 0 1 99.24 58.68 Z M 50 50 L 98.30 62.94 A 50 50 0 0 1 96.98 67.10 Z M 50 50 L 95.32 71.13 A 50 50 0 0 1 93.30 75.00 Z M 50 50 L 90.96 78.68 A 50 50 0 0 1 88.30 82.14 Z M 50 50 L 85.36 85.36 A 50 50 0 0 1 82.14 88.30 Z M 50 50 L 78.68 90.96 A 50 50 0 0 1 75.00 93.30 Z M 50 50 L 71.13 95.32 A 50 50 0 0 1 67.10 96.98 Z M 50 50 L 62.94 98.30 A 50 50 0 0 1 58.68 99.24 Z M 50 50 L 54.36 99.81 A 50 50 0 0 1 50.00 100.00 Z M 50 50 L 45.64 99.81 A 50 50 0 0 1 41.32 99.24 Z M 50 50 L 37.06 98.30 A 50 50 0 0 1 32.90 96.98 Z M 50 50 L 28.87 95.32 A 50 50 0 0 1 25.00 93.30 Z M 50 50 L 21.32 90.96 A 50 50 0 0 1 17.86 88.30 Z M 50 50 L 14.64 85.36 A 50 50 0 0 1 11.70 82.14 Z M 50 50 L 9.04 78.68 A 50 50 0 0 1 6.70 75.00 Z M 50 50 L 4.68 71.13 A 50 50 0 0 1 3.02 67.10 Z M 50 50 L 1.70 62.94 A 50 50 0 0 1 0.76 58.68 Z M 50 50 L 0.19 54.36 A 50 50 0 0 1 0.00 50.00 Z M 50 50 L 0.19 45.64 A 50 50 0 0 1 0.76 41.32 Z M 50 50 L 1.70 37.06 A 50 50 0 0 1 3.02 32.90 Z M 50 50 L 4.68 28.87 A 50 50 0 0 1 6.70 25.00 Z M 50 50 L 9.04 21.32 A 50 50 0 0 1 11.70 17.86 Z M 50 50 L 14.64 14.64 A 50 50 0 0 1 17.86 11.70 Z M 50 50 L 21.32 9.04 A 50 50 0 0 1 25.00 6.70 Z M 50 50 L 28.87 4.68 A 50 50 0 0 1 32.90 3.02 Z M 50 50 L 37.06 1.70 A 50 50 0 0 1 41.32 0.76 Z M 50 50 L 45.64 0.19 A 50 50 0 0 1 50.00 0.00 Z M 50 50 L 54.36 0.19 A 50 50 0 0 1 58.68 0.76 Z M 50 50 L 62.94 1.70 A 50 50 0 0 1 67.10 3.02 Z M 50 50 L 71.13 4.68 A 50 50 0 0 1 75.00 6.70 Z M 50 50 L 78.68 9.04 A 50 50 0 0 1 82.14 11.70 Z M 50 50 L 85.36 14.64 A 50 50 0 0 1 88.30 17.86 Z M 50 50 L 90.96 21.32 A 50 50 0 0 1 93.30 25.00 Z M 50 50 L 95.32 28.87 A 50 50 0 0 1 96.98 32.90 Z M 50 50 L 98.30 37.06 A 50 50 0 0 1 99.24 41.32 Z M 50 50 L 99.81 45.64 A 50 50 0 0 1 100.00 50.00 Z" fill="#003366"/>
  
  <!-- Central Dot (Blue) -->
  <circle cx="35" cy="50" r="16" fill="#003366"/>
</svg>
