<svg width="1592" height="167" viewBox="0 0 1592 167" fill="none" xmlns="http://www.w3.org/2000/svg">
<path d="M192.74 0H189.75V166.52H192.74V0Z" fill="black"/>
<path d="M1140.28 0H1137.29V166.52H1140.28V0Z" fill="black"/>
<path d="M270.93 83.13C270.93 86.1 270.33 89.1 269.14 92.12C267.95 95.15 266.24 97.88 264.03 100.33C261.82 102.77 259.08 104.78 255.82 106.35C252.56 107.92 248.89 108.71 244.82 108.71C240.75 108.71 237.09 107.94 233.86 106.4C230.63 104.86 227.89 102.86 225.65 100.42C223.41 97.98 221.69 95.23 220.5 92.17C219.31 89.11 218.71 86.05 218.71 82.96C218.71 79.64 219.36 76.47 220.67 73.44C221.98 70.41 223.8 67.75 226.13 65.45C228.46 63.15 231.21 61.3 234.38 59.91C237.55 58.51 241.03 57.81 244.81 57.81C248.59 57.81 251.9 58.48 255.07 59.82C258.24 61.16 261.01 62.98 263.36 65.28C265.72 67.58 267.56 70.27 268.9 73.36C270.24 76.45 270.91 79.7 270.91 83.14L270.93 83.13ZM261.85 83.13C261.85 80.98 261.44 78.88 260.63 76.84C259.81 74.8 258.67 72.99 257.18 71.38C255.7 69.78 253.91 68.5 251.81 67.54C249.71 66.58 247.39 66.1 244.83 66.1C242.27 66.1 239.94 66.58 237.85 67.54C235.75 68.5 233.97 69.78 232.48 71.38C231 72.98 229.85 74.81 229.03 76.88C228.21 78.95 227.81 81.06 227.81 83.21C227.81 85.36 228.22 87.55 229.03 89.58C229.84 91.62 231.01 93.45 232.52 95.08C234.03 96.71 235.82 98 237.89 98.96C239.95 99.92 242.27 100.4 244.83 100.4C247.39 100.4 249.53 99.93 251.6 99C253.67 98.07 255.47 96.8 257.01 95.2C258.55 93.6 259.74 91.75 260.59 89.66C261.43 87.56 261.86 85.38 261.86 83.11L261.85 83.13Z" fill="black"/>
<path d="M274.94 59.12H283.23V66.54H283.4C285.61 63.4 288.25 61.16 291.3 59.82C294.36 58.48 297.45 57.81 300.6 57.81C304.67 57.81 308.28 58.57 311.43 60.08C314.57 61.59 317.19 63.57 319.29 66.02C321.39 68.47 322.97 71.26 324.05 74.4C325.13 77.54 325.67 80.72 325.67 83.92C325.67 87.12 325.12 90.02 324.01 92.96C322.9 95.9 321.3 98.55 319.21 100.9C317.11 103.26 314.55 105.15 311.53 106.57C308.5 108 305.07 108.71 301.23 108.71C298.67 108.71 296.44 108.42 294.55 107.84C292.66 107.26 291.01 106.56 289.62 105.74C288.22 104.93 287.09 104.04 286.22 103.08C285.35 102.12 284.68 101.26 284.21 100.5H284.04V123.63H274.96V59.12H274.94ZM316.58 83.39C316.58 81.24 316.17 79.13 315.36 77.06C314.54 74.99 313.41 73.15 311.96 71.52C310.5 69.89 308.76 68.58 306.72 67.59C304.68 66.6 302.44 66.11 300 66.11C297.56 66.11 295.43 66.59 293.45 67.55C291.47 68.51 289.77 69.78 288.34 71.35C286.91 72.92 285.81 74.74 285.02 76.81C284.23 78.88 283.84 81.02 283.84 83.23C283.84 85.67 284.26 87.94 285.11 90.04C285.95 92.14 287.12 93.95 288.6 95.5C290.08 97.04 291.83 98.25 293.84 99.12C295.85 99.99 297.99 100.43 300.26 100.43C302.41 100.43 304.46 100.02 306.41 99.21C308.36 98.4 310.09 97.25 311.6 95.76C313.11 94.28 314.32 92.49 315.22 90.39C316.12 88.29 316.57 85.97 316.57 83.41L316.58 83.39Z" fill="black"/>
<path d="M338.62 87.23C339.2 89.56 340.06 91.55 341.2 93.21C342.33 94.87 343.64 96.24 345.13 97.31C346.61 98.39 348.17 99.17 349.8 99.67C351.43 100.17 353 100.41 354.51 100.41C357.88 100.41 360.75 99.58 363.11 97.92C365.47 96.26 367.2 94.38 368.3 92.29H377.38C376.21 95.43 374.7 98.05 372.84 100.15C370.98 102.25 368.98 103.92 366.86 105.17C364.73 106.42 362.55 107.32 360.31 107.88C358.07 108.43 356.02 108.71 354.16 108.71C350.73 108.71 347.51 108.03 344.51 106.66C341.51 105.29 338.91 103.44 336.7 101.12C334.49 98.79 332.74 96.09 331.46 93C330.18 89.92 329.54 86.66 329.54 83.22C329.54 79.61 330.2 76.25 331.5 73.14C332.81 70.03 334.58 67.33 336.83 65.06C339.07 62.79 341.69 61.02 344.69 59.73C347.69 58.45 350.9 57.81 354.34 57.81C357.78 57.81 360.71 58.44 363.68 59.69C366.65 60.94 369.27 62.67 371.54 64.88C373.81 67.09 375.61 69.71 376.95 72.74C378.29 75.77 378.96 79.06 378.96 82.6C378.96 83.42 378.93 84.32 378.87 85.31C378.81 86.3 378.75 86.94 378.7 87.23H338.63H338.62ZM369.87 80.25C369.75 78.5 369.29 76.77 368.47 75.06C367.65 73.34 366.55 71.83 365.15 70.52C363.75 69.21 362.12 68.15 360.26 67.33C358.4 66.52 356.39 66.11 354.24 66.11C352.09 66.11 350.01 66.52 348.17 67.33C346.34 68.15 344.72 69.21 343.32 70.52C341.92 71.83 340.82 73.34 340 75.06C339.18 76.78 338.72 78.51 338.6 80.25H369.85H369.87Z" fill="black"/>
<path d="M418.32 107.49V81.21C418.32 80.28 418.26 78.97 418.15 77.28C418.03 75.59 417.6 73.92 416.84 72.26C416.08 70.6 414.89 69.16 413.26 67.94C411.63 66.72 409.3 66.11 406.28 66.11C402.44 66.11 399.35 67.39 397.03 69.95C394.7 72.51 393.54 76.24 393.54 81.12V107.48H384.46V59.12H392.93V64.27H393.1C394.32 62.64 395.66 61.39 397.12 60.52C398.57 59.65 399.97 59.01 401.31 58.6C402.65 58.19 403.86 57.96 404.93 57.9C406.01 57.84 406.78 57.81 407.24 57.81C411.02 57.81 414.38 58.57 417.32 60.08C420.26 61.59 422.6 63.72 424.35 66.45C425.34 68.02 426.08 69.8 426.58 71.78C427.07 73.76 427.35 76.12 427.41 78.85V107.48H418.33L418.32 107.49Z" fill="black"/>
<path d="M459.7 107.49V59.13H468.17V63.49H468.34C469.27 62.15 470.33 61.1 471.53 60.35C472.72 59.59 473.9 59.03 475.07 58.65C476.23 58.27 477.31 58.04 478.3 57.95C479.29 57.86 480.07 57.82 480.66 57.82V67.16C479.96 67.16 478.97 67.31 477.69 67.6C476.41 67.89 475.22 68.33 474.11 68.91C472.65 69.73 471.4 71.08 470.36 72.97C469.31 74.86 468.79 77.55 468.79 81.05V107.5H459.71L459.7 107.49Z" fill="black"/>
<path d="M489.58 87.23C490.16 89.56 491.02 91.55 492.16 93.21C493.29 94.87 494.6 96.24 496.09 97.31C497.57 98.39 499.13 99.17 500.76 99.67C502.39 100.17 503.96 100.41 505.47 100.41C508.84 100.41 511.71 99.58 514.07 97.92C516.43 96.26 518.16 94.38 519.26 92.29H528.34C527.18 95.43 525.66 98.05 523.8 100.15C521.94 102.25 519.94 103.92 517.82 105.17C515.69 106.42 513.51 107.32 511.27 107.88C509.03 108.43 506.98 108.71 505.12 108.71C501.69 108.71 498.47 108.03 495.47 106.66C492.47 105.29 489.87 103.44 487.66 101.12C485.45 98.79 483.7 96.09 482.42 93C481.14 89.92 480.5 86.66 480.5 83.22C480.5 79.61 481.16 76.25 482.46 73.14C483.77 70.03 485.54 67.33 487.79 65.06C490.03 62.79 492.65 61.02 495.65 59.73C498.65 58.45 501.86 57.81 505.3 57.81C508.74 57.81 511.67 58.44 514.64 59.69C517.61 60.94 520.23 62.67 522.5 64.88C524.77 67.09 526.57 69.71 527.91 72.74C529.25 75.77 529.92 79.06 529.92 82.6C529.92 83.42 529.89 84.32 529.83 85.31C529.77 86.3 529.71 86.94 529.66 87.23H489.59H489.58ZM520.84 80.25C520.72 78.5 520.26 76.77 519.44 75.06C518.62 73.34 517.52 71.83 516.12 70.52C514.72 69.21 513.09 68.15 511.23 67.33C509.37 66.52 507.36 66.11 505.21 66.11C503.06 66.11 500.98 66.52 499.14 67.33C497.31 68.15 495.69 69.21 494.29 70.52C492.89 71.83 491.79 73.34 490.97 75.06C490.15 76.78 489.69 78.51 489.57 80.25H520.82H520.84Z" fill="black"/>
<path d="M555.37 71.96C555.08 69.98 554.39 68.51 553.32 67.55C552.24 66.59 550.86 66.11 549.17 66.11C547.48 66.11 546.11 66.59 545.07 67.55C544.02 68.51 543.5 69.75 543.5 71.26C543.5 72.25 543.7 73.08 544.11 73.75C544.52 74.42 545.07 74.99 545.77 75.45C546.47 75.92 547.27 76.31 548.17 76.63C549.07 76.95 550.02 77.26 551.01 77.55C551.94 77.84 553.22 78.28 554.85 78.86C556.48 79.44 558.09 80.33 559.7 81.52C561.3 82.71 562.68 84.26 563.85 86.15C565.01 88.04 565.6 90.41 565.6 93.26C565.6 95.41 565.24 97.42 564.51 99.28C563.78 101.14 562.72 102.77 561.32 104.17C559.92 105.57 558.22 106.67 556.21 107.49C554.2 108.3 551.92 108.71 549.36 108.71C547.85 108.71 546.1 108.45 544.12 107.92C542.14 107.4 540.28 106.48 538.53 105.17C536.78 103.86 535.3 102.1 534.08 99.89C532.86 97.68 532.25 94.91 532.25 91.6H541.33C541.5 94.34 542.27 96.49 543.64 98.06C545.01 99.63 546.97 100.42 549.53 100.42C551.57 100.42 553.24 99.82 554.55 98.63C555.86 97.44 556.51 95.82 556.51 93.78C556.51 92.73 556.29 91.83 555.86 91.07C555.42 90.31 554.83 89.66 554.07 89.11C553.31 88.56 552.41 88.06 551.36 87.63C550.31 87.19 549.21 86.77 548.04 86.36C546.7 85.89 545.25 85.36 543.68 84.74C542.11 84.13 540.64 83.29 539.27 82.21C537.9 81.13 536.75 79.77 535.82 78.11C534.89 76.45 534.42 74.34 534.42 71.78C534.42 69.98 534.78 68.24 535.51 66.59C536.24 64.93 537.26 63.45 538.57 62.14C539.88 60.83 541.48 59.78 543.37 59C545.26 58.21 547.34 57.82 549.61 57.82C551.01 57.82 552.55 58.05 554.24 58.52C555.93 58.99 557.51 59.77 559 60.88C560.48 61.99 561.75 63.44 562.8 65.24C563.85 67.04 564.4 69.29 564.46 71.96H555.38H555.37Z" fill="black"/>
<path d="M577.67 87.23C578.25 89.56 579.11 91.55 580.25 93.21C581.39 94.87 582.69 96.24 584.18 97.31C585.66 98.39 587.22 99.17 588.85 99.67C590.48 100.17 592.05 100.41 593.56 100.41C596.93 100.41 599.8 99.58 602.16 97.92C604.52 96.26 606.25 94.38 607.35 92.29H616.43C615.27 95.43 613.75 98.05 611.89 100.15C610.03 102.25 608.03 103.92 605.91 105.17C603.79 106.42 601.6 107.32 599.36 107.88C597.12 108.43 595.07 108.71 593.21 108.71C589.78 108.71 586.56 108.03 583.56 106.66C580.56 105.29 577.96 103.44 575.75 101.12C573.54 98.79 571.79 96.09 570.51 93C569.23 89.92 568.59 86.66 568.59 83.22C568.59 79.61 569.24 76.25 570.55 73.14C571.86 70.03 573.63 67.33 575.88 65.06C578.12 62.79 580.74 61.02 583.74 59.73C586.74 58.45 589.95 57.81 593.39 57.81C596.65 57.81 599.76 58.44 602.73 59.69C605.7 60.94 608.32 62.67 610.59 64.88C612.86 67.09 614.66 69.71 616 72.74C617.34 75.77 618.01 79.06 618.01 82.6C618.01 83.42 617.98 84.32 617.92 85.31C617.86 86.3 617.8 86.94 617.75 87.23H577.68H577.67ZM608.92 80.25C608.8 78.5 608.34 76.77 607.52 75.06C606.7 73.34 605.6 71.83 604.2 70.52C602.8 69.21 601.17 68.15 599.31 67.33C597.45 66.52 595.44 66.11 593.29 66.11C591.14 66.11 589.06 66.52 587.22 67.33C585.39 68.15 583.77 69.21 582.37 70.52C580.97 71.83 579.87 73.34 579.05 75.06C578.23 76.78 577.77 78.51 577.65 80.25H608.9H608.92Z" fill="black"/>
<path d="M663.8 107.49V99.98H663.63C661.88 102.95 659.54 105.15 656.6 106.57C653.66 108 650.53 108.71 647.21 108.71C643.14 108.71 639.5 108 636.3 106.57C633.1 105.14 630.41 103.25 628.23 100.9C626.05 98.54 624.39 95.85 623.25 92.82C622.11 89.79 621.55 86.68 621.55 83.48C621.55 80.51 622.07 77.52 623.12 74.49C624.17 71.46 625.75 68.71 627.88 66.24C630 63.77 632.67 61.74 635.87 60.17C639.07 58.6 642.85 57.81 647.22 57.81C650.59 57.81 653.74 58.49 656.65 59.86C659.56 61.23 661.89 63.25 663.63 65.93H663.8V59.12H672.88V107.48H663.8V107.49ZM663.98 83.39C663.98 80.83 663.54 78.49 662.67 76.36C661.8 74.24 660.6 72.42 659.09 70.9C657.58 69.39 655.8 68.21 653.76 67.36C651.72 66.52 649.54 66.09 647.21 66.09C644.42 66.09 641.99 66.63 639.92 67.71C637.85 68.79 636.12 70.17 634.73 71.86C633.33 73.55 632.3 75.41 631.63 77.45C630.96 79.49 630.63 81.47 630.63 83.39C630.63 85.6 631.04 87.73 631.85 89.76C632.66 91.8 633.8 93.6 635.25 95.17C636.7 96.74 638.45 98.01 640.49 98.97C642.53 99.93 644.74 100.41 647.12 100.41C649.5 100.41 651.72 99.96 653.75 99.06C655.79 98.16 657.56 96.94 659.08 95.39C660.59 93.85 661.79 92.04 662.66 89.98C663.53 87.91 663.97 85.72 663.97 83.39H663.98Z" fill="black"/>
<path d="M679.34 107.49V59.13H687.81V63.49H687.99C688.92 62.15 689.98 61.1 691.18 60.35C692.37 59.59 693.55 59.03 694.72 58.65C695.88 58.27 696.96 58.04 697.95 57.95C698.94 57.86 699.72 57.82 700.31 57.82V67.16C699.61 67.16 698.62 67.31 697.34 67.6C696.06 67.89 694.87 68.33 693.76 68.91C692.3 69.73 691.05 71.08 690.01 72.97C688.96 74.86 688.44 77.55 688.44 81.05V107.5H679.36L679.34 107.49Z" fill="black"/>
<path d="M738.7 75.19C738.35 74.43 737.84 73.53 737.17 72.48C736.5 71.43 735.63 70.44 734.55 69.51C733.47 68.58 732.16 67.78 730.62 67.11C729.08 66.44 727.23 66.11 725.08 66.11C722.17 66.11 719.7 66.66 717.66 67.77C715.62 68.88 713.98 70.26 712.73 71.92C711.48 73.58 710.58 75.43 710.02 77.46C709.47 79.5 709.19 81.42 709.19 83.22C709.19 85.32 709.52 87.4 710.19 89.46C710.86 91.53 711.85 93.36 713.16 94.96C714.47 96.56 716.1 97.87 718.05 98.89C720 99.91 722.28 100.42 724.9 100.42C728.33 100.42 731.19 99.56 733.46 97.84C735.73 96.12 737.45 94.01 738.61 91.51H748.74C747.81 94.19 746.56 96.59 744.99 98.71C743.42 100.84 741.59 102.64 739.49 104.12C737.39 105.6 735.11 106.74 732.64 107.52C730.17 108.31 727.59 108.7 724.91 108.7C720.95 108.7 717.43 107.96 714.35 106.47C711.27 104.99 708.68 103.04 706.58 100.62C704.48 98.21 702.88 95.48 701.78 92.46C700.67 89.43 700.12 86.35 700.12 83.21C700.12 80.07 700.7 76.79 701.87 73.74C703.03 70.68 704.69 67.98 706.85 65.62C709 63.26 711.61 61.37 714.66 59.95C717.72 58.52 721.16 57.81 725.01 57.81C728.44 57.81 731.53 58.38 734.26 59.51C736.99 60.64 739.35 62.07 741.33 63.79C743.31 65.51 744.92 67.38 746.18 69.42C747.43 71.46 748.29 73.38 748.76 75.18H738.72L738.7 75.19Z" fill="black"/>
<path d="M788.39 107.49V81.21C788.39 80.28 788.33 78.97 788.21 77.28C788.09 75.59 787.66 73.92 786.9 72.26C786.14 70.6 784.95 69.16 783.32 67.94C781.69 66.72 779.36 66.11 776.34 66.11C772.5 66.11 769.41 67.39 767.09 69.95C764.76 72.51 763.6 76.24 763.6 81.12V107.48H754.52V42.88H763.6V64.27H763.77C764.88 62.64 766.11 61.39 767.48 60.52C768.85 59.65 770.17 59.01 771.45 58.6C772.73 58.19 773.91 57.96 774.99 57.9C776.07 57.84 776.84 57.81 777.3 57.81C781.08 57.81 784.44 58.57 787.38 60.08C790.32 61.59 792.66 63.72 794.41 66.45C795.4 68.02 796.14 69.8 796.64 71.78C797.13 73.76 797.41 76.12 797.47 78.85V107.48H788.39V107.49Z" fill="black"/>
<path d="M836.23 87.23C836.81 89.56 837.67 91.55 838.81 93.21C839.95 94.87 841.25 96.24 842.74 97.31C844.22 98.39 845.78 99.17 847.41 99.67C849.04 100.17 850.61 100.41 852.12 100.41C855.49 100.41 858.36 99.58 860.72 97.92C863.08 96.26 864.81 94.38 865.91 92.29H874.99C873.83 95.43 872.31 98.05 870.45 100.15C868.59 102.25 866.59 103.92 864.47 105.17C862.34 106.42 860.16 107.32 857.92 107.88C855.68 108.43 853.63 108.71 851.76 108.71C848.33 108.71 845.11 108.03 842.11 106.66C839.11 105.29 836.51 103.44 834.3 101.12C832.09 98.79 830.34 96.09 829.06 93C827.78 89.92 827.14 86.66 827.14 83.22C827.14 79.61 827.8 76.25 829.1 73.14C830.41 70.03 832.18 67.33 834.43 65.06C836.67 62.79 839.29 61.02 842.29 59.73C845.29 58.45 848.5 57.81 851.94 57.81C855.38 57.81 858.31 58.44 861.28 59.69C864.25 60.94 866.87 62.67 869.14 64.88C871.41 67.09 873.21 69.71 874.55 72.74C875.89 75.77 876.56 79.06 876.56 82.6C876.56 83.42 876.53 84.32 876.47 85.31C876.41 86.3 876.35 86.94 876.29 87.23H836.22H836.23ZM867.48 80.25C867.36 78.5 866.9 76.77 866.08 75.06C865.26 73.34 864.16 71.83 862.76 70.52C861.36 69.21 859.73 68.15 857.87 67.33C856.01 66.52 854 66.11 851.85 66.11C849.7 66.11 847.62 66.52 845.78 67.33C843.95 68.15 842.33 69.21 840.93 70.52C839.53 71.83 838.43 73.34 837.61 75.06C836.79 76.78 836.33 78.51 836.21 80.25H867.46H867.48Z" fill="black"/>
<path d="M890.26 59.12V85.31C890.26 88.28 890.57 90.74 891.18 92.69C891.79 94.64 892.65 96.18 893.76 97.32C894.87 98.45 896.15 99.26 897.6 99.72C899.05 100.19 900.63 100.42 902.31 100.42C906.09 100.42 909.15 99.18 911.48 96.71C913.81 94.24 914.97 90.35 914.97 85.06V59.13H924.05V107.49H915.76V102.25H915.58C914.36 104.35 912.45 105.95 909.86 107.05C907.27 108.15 904.43 108.71 901.35 108.71C898.56 108.71 895.99 108.29 893.67 107.44C891.34 106.6 889.31 105.42 887.56 103.9C885.52 102.15 883.95 99.83 882.85 96.92C881.74 94.01 881.19 90.14 881.19 85.31V59.12H890.27H890.26Z" fill="black"/>
<path d="M930.51 107.49V59.13H938.98V63.49H939.16C940.09 62.15 941.15 61.1 942.35 60.35C943.54 59.59 944.72 59.03 945.89 58.65C947.05 58.27 948.13 58.04 949.12 57.95C950.11 57.86 950.89 57.82 951.48 57.82V67.16C950.78 67.16 949.79 67.31 948.51 67.6C947.23 67.89 946.04 68.33 944.93 68.91C943.47 69.73 942.22 71.08 941.18 72.97C940.13 74.86 939.61 77.55 939.61 81.05V107.5H930.53L930.51 107.49Z" fill="black"/>
<path d="M1003.29 83.13C1003.29 86.1 1002.69 89.1 1001.5 92.12C1000.31 95.15 998.6 97.88 996.39 100.33C994.18 102.77 991.44 104.78 988.18 106.35C984.92 107.92 981.25 108.71 977.18 108.71C973.11 108.71 969.45 107.94 966.22 106.4C962.99 104.86 960.25 102.86 958.01 100.42C955.77 97.98 954.05 95.23 952.86 92.17C951.67 89.11 951.07 86.05 951.07 82.96C951.07 79.64 951.72 76.47 953.03 73.44C954.34 70.41 956.16 67.75 958.49 65.45C960.82 63.15 963.57 61.3 966.74 59.91C969.91 58.51 973.39 57.81 977.17 57.81C980.95 57.81 984.26 58.48 987.43 59.82C990.6 61.16 993.37 62.98 995.72 65.28C998.08 67.58 999.92 70.27 1001.26 73.36C1002.6 76.45 1003.27 79.7 1003.27 83.14L1003.29 83.13ZM994.21 83.13C994.21 80.98 993.8 78.88 992.99 76.84C992.17 74.8 991.03 72.99 989.54 71.38C988.06 69.78 986.27 68.5 984.17 67.54C982.07 66.58 979.75 66.1 977.19 66.1C974.63 66.1 972.3 66.58 970.21 67.54C968.11 68.5 966.33 69.78 964.84 71.38C963.36 72.98 962.21 74.81 961.39 76.88C960.57 78.95 960.17 81.06 960.17 83.21C960.17 85.36 960.58 87.55 961.39 89.58C962.2 91.62 963.37 93.45 964.88 95.08C966.39 96.71 968.18 98 970.25 98.96C972.31 99.92 974.63 100.4 977.19 100.4C979.75 100.4 981.89 99.93 983.96 99C986.03 98.07 987.83 96.8 989.37 95.2C990.91 93.6 992.11 91.75 992.95 89.66C993.79 87.56 994.22 85.38 994.22 83.11L994.21 83.13Z" fill="black"/>
<path d="M1007.31 59.12H1015.6V66.54H1015.77C1017.98 63.4 1020.62 61.16 1023.67 59.82C1026.72 58.48 1029.82 57.81 1032.97 57.81C1037.04 57.81 1040.65 58.57 1043.8 60.08C1046.94 61.59 1049.56 63.57 1051.66 66.02C1053.76 68.46 1055.34 71.26 1056.42 74.4C1057.5 77.54 1058.03 80.72 1058.03 83.92C1058.03 87.12 1057.48 90.02 1056.37 92.96C1055.26 95.9 1053.66 98.55 1051.57 100.9C1049.47 103.26 1046.91 105.15 1043.89 106.57C1040.86 108 1037.43 108.71 1033.59 108.71C1031.03 108.71 1028.8 108.42 1026.91 107.84C1025.02 107.26 1023.37 106.56 1021.98 105.74C1020.58 104.93 1019.45 104.04 1018.58 103.08C1017.71 102.12 1017.04 101.26 1016.57 100.5H1016.4V123.63H1007.32V59.12H1007.31ZM1048.95 83.39C1048.95 81.24 1048.54 79.13 1047.73 77.06C1046.91 74.99 1045.78 73.15 1044.33 71.52C1042.87 69.89 1041.13 68.58 1039.09 67.59C1037.05 66.6 1034.81 66.11 1032.37 66.11C1029.93 66.11 1027.8 66.59 1025.82 67.55C1023.84 68.51 1022.14 69.78 1020.71 71.35C1019.28 72.92 1018.18 74.74 1017.39 76.81C1016.6 78.88 1016.21 81.02 1016.21 83.23C1016.21 85.67 1016.63 87.94 1017.48 90.04C1018.32 92.14 1019.49 93.95 1020.97 95.5C1022.45 97.04 1024.2 98.25 1026.21 99.12C1028.22 99.99 1030.36 100.43 1032.63 100.43C1034.78 100.43 1036.83 100.02 1038.79 99.21C1040.74 98.4 1042.47 97.25 1043.98 95.76C1045.49 94.28 1046.7 92.49 1047.6 90.39C1048.5 88.29 1048.95 85.97 1048.95 83.41V83.39Z" fill="black"/>
<path d="M1070.98 87.23C1071.56 89.56 1072.42 91.55 1073.55 93.21C1074.69 94.87 1075.99 96.24 1077.48 97.31C1078.96 98.39 1080.52 99.17 1082.15 99.67C1083.78 100.17 1085.35 100.41 1086.86 100.41C1090.23 100.41 1093.1 99.58 1095.46 97.92C1097.82 96.26 1099.55 94.38 1100.65 92.29H1109.73C1108.56 95.43 1107.05 98.05 1105.19 100.15C1103.33 102.25 1101.33 103.92 1099.21 105.17C1097.09 106.42 1094.9 107.32 1092.66 107.88C1090.42 108.43 1088.37 108.71 1086.51 108.71C1083.08 108.71 1079.86 108.03 1076.86 106.66C1073.86 105.29 1071.26 103.44 1069.05 101.12C1066.84 98.79 1065.09 96.09 1063.81 93C1062.53 89.92 1061.89 86.66 1061.89 83.22C1061.89 79.61 1062.55 76.25 1063.85 73.14C1065.16 70.03 1066.93 67.33 1069.18 65.06C1071.42 62.79 1074.04 61.02 1077.04 59.73C1080.04 58.45 1083.25 57.81 1086.69 57.81C1089.95 57.81 1093.06 58.44 1096.03 59.69C1099 60.94 1101.62 62.67 1103.89 64.88C1106.16 67.09 1107.96 69.71 1109.3 72.74C1110.64 75.77 1111.31 79.06 1111.31 82.6C1111.31 83.42 1111.28 84.32 1111.22 85.31C1111.16 86.3 1111.1 86.94 1111.05 87.23H1070.98ZM1102.23 80.25C1102.11 78.5 1101.65 76.77 1100.83 75.06C1100.01 73.34 1098.91 71.83 1097.51 70.52C1096.11 69.21 1094.48 68.15 1092.62 67.33C1090.76 66.52 1088.75 66.11 1086.6 66.11C1084.45 66.11 1082.37 66.52 1080.53 67.33C1078.7 68.15 1077.08 69.21 1075.68 70.52C1074.28 71.83 1073.18 73.34 1072.36 75.06C1071.54 76.78 1071.08 78.51 1070.96 80.25H1102.21H1102.23Z" fill="black"/>
<path d="M1432.17 107.3C1430.21 108.8 1423.31 113.05 1412.96 113.05C1394.21 113.05 1381.44 101.2 1381.44 83.26C1381.44 65.32 1395.01 53.47 1413.42 53.47C1420.55 53.47 1428.72 55.66 1433.32 57.61C1432.4 59.68 1431.59 62.56 1431.25 64.28L1430.79 64.4C1427.22 60.49 1421.59 57.04 1413.19 57.04C1402.49 57.04 1390.18 65.67 1390.18 82.92C1390.18 100.17 1402.72 108.69 1413.88 108.69C1423.89 108.69 1428.72 103.97 1433.09 100.29L1433.44 100.64L1432.17 107.31V107.3Z" fill="black"/>
<path d="M1478.52 108.91C1478.52 107.64 1478.64 106.38 1478.75 105.69C1473.11 106.27 1457.47 106.73 1451.37 106.73C1451.25 105.23 1451.14 87.18 1451.25 84.41C1453.67 84.41 1466.55 84.53 1472.3 85.1C1472.18 84.29 1472.07 83.03 1472.07 82.22C1472.07 81.41 1472.19 79.92 1472.3 79.11C1467.35 79.57 1461.14 79.92 1451.25 79.92C1451.25 77.85 1451.37 62.67 1451.48 59.1C1462.29 59.1 1472.07 59.79 1477.59 60.14C1477.47 59.56 1477.36 58.41 1477.36 57.26C1477.36 56.11 1477.48 55.19 1477.59 54.38C1474.71 54.61 1465.4 54.84 1460.45 54.84C1455.5 54.84 1447.8 54.72 1442.74 54.38C1443.09 61.51 1443.43 68.64 1443.43 75.89V90.38C1443.43 97.51 1443.08 104.76 1442.74 112.01C1447.8 111.78 1455.62 111.55 1460.68 111.55H1461.37C1463.1 111.55 1465.28 111.55 1467.58 111.67C1471.49 111.79 1475.63 111.9 1478.62 112.02C1478.62 111.1 1478.5 110.18 1478.5 108.91H1478.52Z" fill="black"/>
<path d="M1497.16 83.84V90.4C1497.16 97.53 1497.51 104.78 1497.85 111.91C1496.47 111.68 1493.82 111.68 1493.36 111.68C1492.9 111.68 1490.25 111.68 1488.87 111.91C1489.22 104.78 1489.56 97.53 1489.56 90.4V76.14C1489.56 69.01 1489.21 61.76 1488.87 54.63C1491.98 54.86 1496 55.09 1499.22 55.09C1502.44 55.09 1505.55 54.63 1508.65 54.63C1518.08 54.63 1526.71 57.39 1526.71 67.86C1526.71 78.9 1515.67 82.93 1509.34 83.73C1513.37 88.79 1528.09 106.62 1532.92 112.03C1531.19 111.8 1528.43 111.8 1527.74 111.8C1526.93 111.8 1524.06 111.8 1522.56 112.03C1519.22 106.97 1508.76 91.21 1501.51 83.85C1501.16 83.85 1497.14 83.85 1497.14 83.85L1497.16 83.84ZM1502.68 80.73C1509.58 80.61 1518.55 78.43 1518.55 68.88C1518.55 60.6 1511.3 57.95 1505.67 57.95C1501.87 57.95 1499.34 58.18 1497.62 58.41C1497.39 64.51 1497.16 70.03 1497.16 76.12V80.72C1497.97 80.84 1501.88 80.84 1502.68 80.72V80.73Z" fill="black"/>
<path d="M1591.25 54.51C1590.33 54.63 1589.06 54.86 1587.57 54.86C1586.08 54.86 1584.81 54.74 1584 54.51C1584.35 61.3 1585.04 73.95 1585.04 82.23C1585.04 88.44 1585.04 93.85 1584.92 96.95C1581.93 93.73 1547.19 57.84 1543.62 53.93H1540.86C1540.98 59.22 1541.09 64.97 1541.09 75.44C1541.09 88.9 1540.86 103.16 1540.17 111.9C1541.09 111.78 1542.36 111.55 1543.85 111.55C1545.34 111.55 1546.5 111.67 1547.42 111.9C1547.07 105.11 1546.38 92.46 1546.38 84.18C1546.38 77.97 1546.38 71.53 1546.5 68.42C1549.49 71.64 1584.46 108.1 1587.8 112.59H1590.56C1590.44 107.3 1590.33 101.32 1590.33 90.85C1590.33 77.62 1590.56 63.36 1591.25 54.5V54.51Z" fill="black"/>
<path d="M1172.98 71.05C1177.93 71.05 1181.36 72.66 1181.36 77.7C1181.36 82.74 1177.93 84.26 1172.98 84.26H1170.77V92.67H1166.3V71.04H1172.98V71.05ZM1170.77 74.69V80.69H1172.86C1174.89 80.69 1176.59 79.97 1176.59 77.71C1176.59 75.45 1174.89 74.7 1172.86 74.7H1170.77V74.69Z" fill="black"/>
<path d="M1192.39 70.66C1198.24 70.66 1200.86 75.13 1200.86 81.85C1200.86 88.57 1198.24 93.07 1192.39 93.07C1186.54 93.07 1183.92 88.57 1183.92 81.85C1183.92 75.13 1186.52 70.66 1192.39 70.66ZM1192.39 89.55C1195.16 89.55 1196.12 86.39 1196.12 81.85C1196.12 77.31 1195.16 74.18 1192.39 74.18C1189.62 74.18 1188.66 77.28 1188.66 81.85C1188.66 86.42 1189.64 89.55 1192.39 89.55Z" fill="black"/>
<path d="M1214.91 86.8L1215.66 71.05H1220.34L1219 92.68H1213.51L1211.63 81.67L1209.78 92.68H1204.29L1202.95 71.05H1207.63L1208.35 86.8L1209.96 76.81H1213.3L1214.91 86.8Z" fill="black"/>
<path d="M1224.48 71.05H1237.58V74.9H1228.96V79.7H1236.98V83.55H1228.96V88.83H1237.58V92.68H1224.48V71.05Z" fill="black"/>
<path d="M1249.11 83.91H1247.41V92.68H1242.94V71.05H1248.7C1253.62 71.05 1257.35 72.09 1257.35 77.46C1257.35 80.56 1255.74 82.11 1253.47 82.95L1258.3 92.67H1253.38L1249.11 83.9V83.91ZM1247.41 74.69V80.39H1248.84C1250.99 80.39 1252.6 79.85 1252.6 77.56C1252.6 75.27 1250.99 74.7 1248.84 74.7H1247.41V74.69Z" fill="black"/>
<path d="M1263.01 71.05H1276.11V74.9H1267.49V79.7H1275.51V83.55H1267.49V88.83H1276.11V92.68H1263.01V71.05Z" fill="black"/>
<path d="M1286.45 71.05C1292.33 71.05 1296.89 73.59 1296.89 81.85C1296.89 90.11 1292.21 92.68 1286.33 92.68H1281.38V71.05H1286.45ZM1286.24 74.69H1285.85V89.01H1286.24C1289.88 89.01 1292.15 87.58 1292.15 81.85C1292.15 76.12 1289.88 74.69 1286.24 74.69Z" fill="black"/>
<path d="M1320.39 71.05H1327.1C1331.25 71.05 1334.44 72.12 1334.44 76.63C1334.44 78.51 1333.55 80.09 1332.11 81.07C1333.9 81.88 1335.18 83.34 1335.18 85.96C1335.18 90.79 1332.05 92.67 1327.45 92.67H1320.38V71.04L1320.39 71.05ZM1327.04 79.94C1328.86 79.94 1329.75 79.08 1329.75 77.32C1329.75 75.56 1328.85 74.7 1327.04 74.7H1324.86V79.95H1327.04V79.94ZM1327.28 83.22H1324.86V88.98H1327.28C1329.52 88.98 1330.44 88.03 1330.44 86.12C1330.44 84.21 1329.52 83.23 1327.28 83.23V83.22Z" fill="black"/>
<path d="M1350.37 71.05H1355.47L1348.76 84.92V92.68H1344.29V84.92L1337.58 71.05H1342.68L1346.53 80L1350.38 71.05H1350.37Z" fill="black"/>
<path d="M109.28 80.08C109.41 81.23 109.49 82.37 109.49 83.51C109.49 83.54 109.49 83.57 109.49 83.6C109.49 83.63 109.49 83.66 109.49 83.69C109.49 84.83 109.41 85.97 109.28 87.12C109.1 88.45 108.86 89.76 108.51 91.03L161.27 105.38C161.74 103.68 162.16 101.97 162.52 100.23C163.1 97.41 163.54 94.54 163.83 91.62C164.09 88.98 164.23 86.3 164.23 83.59C164.23 83.56 164.23 83.53 164.23 83.5C164.23 80.82 164.1 78.17 163.85 75.56H163.81C163.37 70.92 162.52 66.32 161.29 61.8L108.51 76.16C108.86 77.43 109.11 78.74 109.28 80.07V80.08Z" fill="black"/>
<path d="M103.04 65.72C103.75 66.56 104.4 67.45 105 68.37C106.14 70.21 107.14 72.19 107.86 74.21L159.51 56.21C158.87 54.38 158.16 52.57 157.39 50.79H157.42C152.9 40.39 146.29 31.12 138.13 23.5L100.75 63.33C101.56 64.09 102.31 64.9 103.03 65.74L103.04 65.72Z" fill="black"/>
<path d="M92.06 57.76C92.18 57.81 92.31 57.85 92.43 57.91C92.43 57.91 112.2 10.68 113.49 7.61002C108.69 5.63002 103.67 4.08 98.47 3.03L87.41 56.36C88.99 56.69 90.55 57.16 92.06 57.77V57.76Z" fill="black"/>
<path d="M72.83 57.26C73.93 56.89 75.05 56.59 76.19 56.35L65.37 3.10001C61.49 3.90001 57.7 4.98 54.04 6.31L72.36 57.42L72.83 57.25V57.26Z" fill="black"/>
<path d="M61.93 64.16L23.12 26.4C21.3 28.28 19.56 30.25 17.92 32.31L60.15 66.17C60.71 65.47 61.3 64.8 61.93 64.16Z" fill="black"/>
<path d="M54.45 78.7L1.21001 69.33C0.980007 70.64 0.779995 71.97 0.619995 73.3L54.25 80.03C54.29 79.7 54.39 79.03 54.45 78.7Z" fill="black"/>
<path d="M0.0200043 85.57L54.04 84.27C54.04 83.93 54.04 83.26 54.04 82.92L0.0200043 81.55C4.27291e-06 82.2 0 82.85 0 83.51C0 84.2 -1.22003e-06 84.88 0.0299988 85.57H0.0200043Z" fill="black"/>
<path d="M55.56 74.38L4.41 56.87C3.98 58.13 3.57 59.41 3.2 60.7L55.15 75.67C55.24 75.35 55.45 74.7 55.56 74.38Z" fill="black"/>
<path d="M80.19 55.8C81.35 55.74 82.51 55.76 83.67 55.83L87.58 1.58002C85.77 1.46002 83.95 1.39001 82.11 1.39001C79.99 1.39001 77.88 1.47 75.79 1.63L79.69 55.83L80.18 55.8H80.19Z" fill="black"/>
<path d="M67.83 59.51L40.58 12.66C38.31 13.99 36.11 15.43 33.99 16.97L65.58 60.97C66.31 60.45 67.06 59.96 67.83 59.51Z" fill="black"/>
<path d="M57.34 70.25L57.67 69.66L10.73 42.88C10.07 44.04 9.43 45.22 8.83 46.42L57.03 70.85L57.34 70.25Z" fill="black"/>
<path d="M96.64 60.1C97.42 60.6 98.17 61.13 98.89 61.7L132.74 18.86C128.62 15.63 124.19 12.79 119.5 10.38C118.04 13.21 94.47 58.84 94.47 58.84C95.21 59.22 95.93 59.64 96.64 60.09V60.1Z" fill="black"/>
<path d="M105.01 98.85C104.41 99.76 103.76 100.65 103.05 101.49C102.34 102.33 101.58 103.14 100.77 103.9L138.05 143.63C147.61 134.73 155.04 123.57 159.51 111.01L107.87 93.01C107.15 95.03 106.16 97.01 105.01 98.85Z" fill="black"/>
<path d="M92.06 109.45C90.55 110.06 88.99 110.53 87.41 110.86L98.43 164.01C103.62 162.96 108.63 161.42 113.42 159.45C111.63 155.18 92.43 109.31 92.43 109.31C92.31 109.36 92.18 109.41 92.06 109.46V109.45Z" fill="black"/>
<path d="M72.83 109.96L72.36 109.79L54.1 160.73C57.76 162.06 61.53 163.13 65.41 163.93L76.19 110.86C75.05 110.62 73.93 110.32 72.83 109.95V109.96Z" fill="black"/>
<path d="M60.15 101.05L18.01 134.84C19.65 136.89 21.39 138.85 23.21 140.73L61.93 103.06C61.31 102.42 60.71 101.75 60.15 101.05Z" fill="black"/>
<path d="M54.27 87.29L0.680008 94.23C0.850008 95.56 1.06 96.89 1.3 98.2L54.48 88.62C54.42 88.29 54.32 87.62 54.27 87.29Z" fill="black"/>
<path d="M55.16 91.55L3.25999 106.5C3.63999 107.79 4.04 109.06 4.48 110.33L55.57 92.84C55.46 92.52 55.26 91.88 55.16 91.55Z" fill="black"/>
<path d="M80.19 111.42L79.7 111.39L75.81 165.4C77.89 165.56 79.99 165.64 82.11 165.64C83.94 165.64 85.76 165.57 87.57 165.46L83.68 111.4C82.52 111.48 81.36 111.49 80.2 111.43L80.19 111.42Z" fill="black"/>
<path d="M65.58 106.25L34.08 150.13C36.2 151.66 38.4 153.09 40.66 154.42L67.83 107.71C67.06 107.26 66.3 106.77 65.58 106.25Z" fill="black"/>
<path d="M57.34 96.96L57.03 96.36L8.89999 120.76C9.50999 121.95 10.14 123.13 10.81 124.29L57.67 97.55L57.34 96.96Z" fill="black"/>
<path d="M96.64 107.12C95.94 107.57 95.21 107.99 94.47 108.37C94.47 108.37 117.38 152.72 119.42 156.68C124.11 154.28 128.53 151.45 132.64 148.24L98.88 105.52C98.16 106.09 97.4 106.63 96.63 107.12H96.64Z" fill="black"/>
</svg>
