<?xml version="1.0" encoding="utf-8"?>
<!-- Generator: Adobe Illustrator 25.2.3, SVG Export Plug-In . SVG Version: 6.00 Build 0)  -->
<svg version="1.1" id="Livello_1" xmlns="http://www.w3.org/2000/svg" xmlns:xlink="http://www.w3.org/1999/xlink" x="0px" y="0px"
	 viewBox="0 0 841.9 595.3" style="enable-background:new 0 0 841.9 595.3;" xml:space="preserve">
<style type="text/css">
	.st0{fill:none;stroke:#B5B21C;stroke-width:18.354;stroke-miterlimit:10;}
	.st1{fill:none;stroke:#40BFF0;stroke-width:18.354;stroke-miterlimit:10;}
	.st2{fill:none;stroke:#E8408D;stroke-width:18.354;stroke-miterlimit:10;}
	.st3{fill:#2D64AE;}
	.st4{fill:#2D64AE;stroke:#2D64AE;stroke-width:3.1296;stroke-miterlimit:10;}
	.st5{fill:#2D64AE;stroke:#2D64AE;stroke-width:0.6088;stroke-miterlimit:10;}
</style>
<g>
	<g>
		<path class="st0" d="M421.2,553.2L421.2,553.2c-141.3,0-255.8-114.5-255.8-255.8l0,0"/>
		<g>
			<path class="st1" d="M165.4,297.4L165.4,297.4c0-141.3,114.5-255.8,255.8-255.8l0,0"/>
			<path class="st2" d="M421.2,41.6L421.2,41.6C562.4,41.6,677,156.2,677,297.4l0,0"/>
		</g>
	</g>
	<g>
		<path id="Sottrazione_1_2_" class="st3" d="M260.2,361.7c-0.6,0-1.2-0.1-1.7-0.3l-3.2-1.9l-1.1-1.3c-0.8-0.2-1.5-0.8-1.9-1.5
			c-0.3-0.7-0.3-1.4,0-2.1c0.3-0.3,0.6-0.5,1.1-0.5c0.1,0.1,0.3,0.1,0.5,0.1c2-0.5,3.9-1.5,5.4-2.9l-0.1-0.9
			c-10.2,1.5-15.9,2.3-17.1,2.3H242c-4.5-2-8.8-4.2-13-6.7c-3.8-2.2-6.5-3.9-8-5c-1.2-0.8-2.3-1.8-3.4-2.8c-1.2-1.1-2.3-2.4-3.2-3.8
			c-0.4-0.5-0.5-1.2-0.3-1.8c1.4-2,2.5-4.3,3.2-6.7c0.1-0.5,0.2-1.1,0.2-1.6c-0.5-1.1-0.4-2.4,0.2-3.4c0.5-0.5,1.3-0.9,2.1-0.9h0.1
			l8.7-0.2v-0.5l1-1.7l0.8,0.3l-1.3,2.6c-0.2,0.3-0.5,0.5-0.9,0.5c-0.1,0-0.2,0-0.2,0c-0.8,0-1.6,0-2.4,0c-1.8,0-3.5,0.1-5.3,0.2
			c-0.5,0-1,0.2-1.4,0.6c-0.4,0.8-0.4,1.7,0,2.4c0.1,0.6,0,1.3-0.2,1.9c-0.7,2.3-1.7,4.5-3,6.5c-0.5,0.5,0.5,2,2.8,4.5
			c3.3,2.8,6.8,5.3,10.6,7.4c4.1,2.5,8.4,4.7,12.9,6.6c5.8-0.7,11.8-1.6,17.8-2.7c2.5-0.5,5.2-1.1,8.1-1.8c5-1.3,9.9-2.9,14.7-4.8
			c0.5-0.1,0.6-0.7,0.4-1.8c-0.5-2.6-1.4-5.1-2.8-7.4c-1.7,0.2-3.4,0.4-5.1,0.4c-1.5,0-3,0.1-4.6,0.3c-3.3,0.4-6.5,0.9-9.4,1.4
			l-7.4,1.4c-3.8,0.6-7.5,0.9-11.3,1.1c-2.7-2-6.6-4.6-11.6-7.7c-3.5-2.3-7.1-4.3-10.9-6.2c-0.3-0.1-0.4-0.4-0.5-0.7
			c0-0.3,0-0.6,0.2-0.8c0.9-0.3,1.8-0.5,2.8-0.5c0.2,0,0.5,0,0.7,0c0.5,0,0.9,0.1,0.9,0.3c0,0.1,0,0.2,0,0.3c-0.2,0.3-0.6,0.6-1,0.6
			h-0.1c-0.4,0-0.9,0.1-1.4,0.1c3.4,1.5,6.7,3.3,9.8,5.3l-0.1-4.5c-0.1-1.5,0.3-3,1-4.3c0.2-1-0.9-1.8-3.3-2.4c-0.1,0-0.2,0-0.2,0
			c-0.1,0-0.2,0.1-0.2,0.3v-0.3c0-0.2,0-0.3-0.1-0.5s-0.1-0.4,0.1-0.5c1.3,0,2.5,0.4,3.5,1.1c1.1,0.4,1.7,1.5,1.6,2.7
			c-0.8,1.4-1.1,2.9-0.9,4.5l0.3,5.2c4.2,2.8,7.3,5,9.4,6.5c2.6-0.1,5.3-0.3,7.9-0.7l1.6-4.6c-1.7-1.3-3.3-2.6-4.8-4.1l-1.3,0.2
			c-1.3,0-2.4-0.8-2.8-2.1c-1.9-0.1-3.5-1.3-4.3-3c-2-2.3-3.8-4.7-5.4-7.2c-0.3,0.1-0.7,0.1-1,0.1c-0.8,0-1.5-0.2-2.1-0.6
			c-1.3-0.7-2.6-1.7-3.6-2.8l-6.3-7.4c-4.4-5.6-7.4-12.1-8.9-19.1c-0.3-2.2-0.5-4.4-0.6-6.7c-0.1-2.1-0.1-3.4,0-3.9
			c0.1-1.1,0.7-2.1,1.7-2.5c0.1,0,0.3-0.1,0.5-0.1c1.8,0,4.3,3.4,7.4,10.2c1.7,4.1,4,10.1,6.7,18c0-1.3,0.1-2.5,0.3-3.8
			c-1.3-2.4-2.3-5-3-7.6c-0.2-0.7-0.5-1.3-1.1-1.7c-0.5-0.4-0.7-0.9-0.6-1.5c0-1.1-0.2-2.1-0.6-3.1c-0.9-2.9-1.5-5-2.1-6.3
			c-1.2-0.7-2.1-1.8-2.6-3c-1.2-2.6-2.1-5.2-2.8-8c-0.7-3.3-0.9-6.7-0.7-10.1c0.3-4,1-8,2-11.9c0.8-2.7,1.8-5.3,3.1-7.7
			c0.9-1.7,1.9-3.4,3.1-5c0.9-1.2,1.8-2.4,2.7-3.6c0.8-1.1,1.7-2.1,2.8-2.8c0.2-0.1,0.5-0.2,0.7-0.2c0.1,0,0.3,0,0.4,0.1
			c0.4,0.1,0.7,0.4,0.8,0.8c0.5,2.2,0.6,4.4,0.2,6.6c1.2-3.2,2.6-6.3,4.2-9.4c1.8-3.6,4.2-7,7-9.9c1.4-1.5,3.1-2.7,5-3.6
			c0.2-0.1,0.4-0.1,0.6-0.1c0.4,0,0.8,0.2,1.1,0.6c0.3,0.8,0.2,1.8,0,2.6c-1,2.5-1.9,4.7-2.8,6.6l-1.7,3.9c1.5-3.1,3.4-5.9,5.7-8.5
			c2.3-2.7,5-5,8-6.9c3.1-2.1,6.6-3.7,10.2-4.6c1.2-0.3,2.5-0.4,3.8-0.4c1.5,0,2.5,0.3,2.9,0.9c-0.1,1.4-0.7,2.6-1.6,3.6
			c0.2,0,0.4,0,0.6,0c1,0,2,0.3,2.9,0.9c-0.4,2.5-1.7,4.8-3.7,6.3c-2.1,1.7-4.4,3.1-6.9,4.2l-3.5,1.8c-0.5,0.3-1.1,0.5-1.7,0.8
			l-0.1,0.1c-1.8,0.8-3.6,1.7-5.7,2.6l-0.9,0.3l-0.7,0.2c-0.4,0.9-0.8,1.8-1.2,2.7l0.1-0.1c0.3-0.2,0.5-0.3,0.6-0.4l0.3-0.2l3.8,3.4
			c1.8-1.1,3.7-2,5.6-2.8l-0.6-5l0.3-0.1c1-0.4,5.2-1.8,6.2-2l0.4-0.1l2.6,4.4c2-0.5,4.1-0.8,6.2-1l1-4.9h0.4l0,0h0.3h0.5
			c0.8,0,1.8,0,2.4,0s2.5,0,3.3,0.1h0.4l1,4.9c2.1,0.2,4.2,0.5,6.2,1l2.5-4.4l0.4,0.1c1.1,0.3,5.3,1.6,6.3,2l0.3,0.1l-0.6,5
			c1.9,0.8,3.8,1.8,5.6,2.8l2.8-2.6c-0.1-0.4,0-0.9,0.4-1.2c0.4-0.5,0.9-0.9,1.5-1.2l-1.3-0.6c-1.3-0.6-2.2-2-2.2-3.4l-3.3-1.4
			l0.3-1.6c-0.7,0.3-1.4,0.5-2.2,0.5c-1.5,0-3-0.6-4-1.8c-0.5-0.1-1-0.4-1.3-0.9s-0.3-1.1-0.1-1.6c-0.6,0.1-1.2,0.2-1.8,0.2
			c-0.7,0-1.4-0.1-2.1-0.3c-1.3-0.1-2.3-0.9-2.8-2.1c-0.1-0.7,0-1.3,0.4-1.9c-1.2-0.5-2.1-1.5-2.5-2.7c-0.4-0.9-0.2-1.9,0.6-2.5
			c1.2-0.7,2.6-1.1,4-1.1h0.2c-0.1-0.6,0-1.2,0.3-1.7c0.3-0.3,0.8-0.5,1.2-0.5h0.1c0.8,0.3,1.8,0.5,2.8,0.8c1.1,0.3,2,0.8,2.8,1.6
			c0.5-0.5,1.2-0.8,1.9-0.8c0.5,0,1,0.1,1.4,0.4c2.7,1.5,5.2,3.4,7.2,5.8c0.5-0.4,1-0.6,1.6-0.6c0.8,0,1.4,0.7,1.8,2l0.3,1.8
			c0.6-0.7,1.4-1.1,2.3-1.2c1.2,0.1,2.3,0.7,3,1.7c0.8,0.1,1.6,0.4,2.3,0.9c0.4-0.2,0.8-0.3,1.2-0.3c0.1,0,0.2,0,0.3,0
			c1.3,0,2.5,0.9,3,2.1c0.6,1.3,1,2.6,1.2,3.9c0.3-1.2,0.8-1.8,1.5-1.8c0.2,0,0.4,0,0.6,0.1c0.9,1.4,1.6,2.9,1.9,4.6
			c0.9,1.1,1.4,2.4,1.5,3.9c0.3-0.1,0.6-0.1,0.9-0.1c1.7,0,3.5,1.4,5.4,4.2c0.2-0.3,0.5-0.5,0.9-0.5c0.7,0,1.5,0.7,2.4,2.1
			c0.9,1.6,1.5,3.3,1.7,5.1c0.2-0.1,0.4-0.1,0.6-0.1c1.1,0,1.7,1.4,1.8,4.3c0.8,1.6,1.3,3.3,1.6,5.1c0,0.7-0.2,1.4-0.5,2.1
			c0.2-0.2,0.5-0.3,0.8-0.3c0.1,0,0.2,0,0.3,0c0.4,0.1,0.7,0.4,0.7,0.8c0.8,1.1,1.3,2.5,1.3,3.9c-0.3,1.6-1.2,3-2.5,3.9
			c0.6-0.2,1.2-0.3,1.8-0.3c0.5-0.1,0.9,0.1,1.3,0.5c0.3,0.5,0.2,1.4-0.4,2.7c-1.3,1.8-2.4,3.7-3,5.8c0.1,1.3-0.1,2.7-0.6,3.9
			c-0.7,1-1.7,1.9-2.9,2.3c0.2,0.6,0.2,1.3-0.1,2c0.8-0.9,1.9-1.5,3.1-1.7c0.3,0,0.6,0.1,0.8,0.2c0.6-0.8,1.6-1.2,2.6-1.2
			c0.6,0,1.1,0.1,1.6,0.4c1.1,0.8,1.4,2.8,0.9,5.8c1.3,2,1,4.6-0.5,6.3c0.6,0.5,1,1.3,0.9,2.1c0,0.7-0.2,1.4-0.6,2
			c-0.7,0.7-1.4,1.3-2.3,1.8c0.3,1.5,0.3,3.1,0.1,4.6c-0.8,2.4-2.1,4.7-3.9,6.5c0.5,1.5,0.3,3.2-0.7,4.5c-1.5,2-3.3,3.8-5.3,5.3
			c0.6,0.8,0.6,1.9,0,2.7c-2.6,2-5.7,3.3-8.9,3.9c-1.9,0.3-3.8,1.1-5.2,2.4l-5,6c-0.2,0.8-0.8,1.5-1.6,1.9c0.2,0.9-0.3,1.8-1.1,2.1
			c-0.9,0.3-1.8,0.5-2.8,0.6c-1.5,1.1-3,2.1-4.6,3.1c0.2,1.5,0.9,3,2,4.1c1.8,0.5,3.6,0.7,5.4,0.7c0.9,0,1.8-0.1,2.7-0.2
			c3-1.8,5.8-3.8,8.5-6.1c0.4-2.5,0.8-5.1,0.9-7.6c0-0.8-0.4-1.5-0.9-2c-0.4-0.3-0.6-0.8-0.6-1.3s0.2-1,0.5-1.3
			c1.3-1,2.9-1.7,4.6-1.9c0.1,0,0.1,0,0.2,0c0.2,0,0.3,0.1,0.5,0.2c0.2,0.3,0.2,0.7,0.1,1l-0.1,2.1c0.4,0.5,1,0.8,1.7,0.8
			c0.1,0,0.1,0,0.2,0c1.2-0.1,2.4-0.2,3.5-0.2c0.9,0,1.8,0,2.6,0.1l0,0c0.7,0,1.4,0.3,1.9,0.8c0.6,0.5,0.9,1.4,0.8,2.2
			c-0.2,0.9-0.1,1.8,0.1,2.6c0.3,1.3,0.7,2.6,1.2,3.8c0.5,1.3,1.3,2.4,2.3,3.4c-0.8,2-2,3.8-3.4,5.3c-10,7.1-15.5,11.1-17.4,12.4
			c-1.2,1.1-2.8,1.8-4.4,1.8h-0.2c-7.8-0.5-15.6-1.3-23.3-2.6l1.4,1c1.9,1.5,4,2.9,6.3,3.9l1.6,0.4l0.8,0.8c0,0.9-0.5,1.8-1.3,2.2
			l-1.9,0.6c-1.3,1.2-3.1,1.9-4.9,1.9h0.1l-1.2-0.4l-1.2-2.2c-1.2-0.1-2.3-0.5-3.3-1.3c-0.6-0.4-0.9-1.1-0.9-1.8
			c-5-4.5-8.6-7-10.6-7.5l-2.2,1.3c-0.5,0.2-1.1,0.4-1.8,0.4c-0.4,0-0.9-0.1-1.3-0.2c-1.1-0.7-2.3-1.2-3.5-1.5c-0.1,0-0.2,0-0.2,0.1
			l-3,2.1c-0.5,0.4-0.8,1.1-0.8,1.7c-0.9,1.2-2.3,2-3.8,2.1l-2.5,1.9l-3.4,3.4l-0.3,0.3c-0.2,1.2-1,2.2-2.1,2.7
			C261.3,361.6,260.7,361.7,260.2,361.7z M253.7,355.6L253.7,355.6l-0.3,0.8l0.9,0.7c0.8,0.4,1.6,0.9,2.2,1.5l2.1,1.1
			c0.3,0.3,0.8,0.4,1.2,0.4c0.1,0,0.2,0,0.2,0c0.5-0.1,1-0.3,1.3-0.8c0-0.9-0.5-1.8-1.4-2.1l-1.9-0.3l-0.4-0.5l2.5-1.2
			c1.7-0.8,3.3-1.8,4.9-2.9c1.3-0.9,2.5-1.9,3.7-3l0.8,0.1L268,351c-3.3,2.5-5.8,4.2-7.6,5.3l1,0.3c2.9-2,5.6-4.2,8.2-6.7l0,0
			c0.5-0.4,0.7-0.8,0.7-1.1c-0.1-0.4-0.3-0.7-0.6-0.8c-1.5,0.2-3,0.6-4.4,1.3c-0.9,0.5-2,0.8-3.1,0.8c-0.4,0-0.8,0-1.2-0.1l-0.3,1.6
			c0.1,0.7-0.3,1.3-1,1.5l-3.1,1.9l0.4,1.6h-0.8L253.7,355.6L253.7,355.6z M306.7,356.2c-0.7,0.1-1.4,0.3-2.1,0.6
			c-0.5,0.2-1,0.6-1.3,1.1l0.3,1l1.4,0.3c1.3-0.3,2.5-0.9,3.4-1.7l2.2-0.7l0.3-0.4l-0.9-0.2l-1.4,0.4L306.7,356.2z M296.3,349.5
			c-0.5,0-1,0-1.5,0.1l4,3.4c1.4,1,2.8,2.3,3.9,3.6h1.2c0.9-0.5,1.9-0.8,2.9-1l-7.3-5.5C298.6,349.8,297.4,349.5,296.3,349.5
			L296.3,349.5z M291.7,333.3l-1.3,0.2v0.5c1.6,1.4,2.8,3.3,3.2,5.4c0.3,0.9,0.5,1.9,0.5,2.9c-0.4,0.9-0.9,1.8-1.6,2.5l-0.6,0.6
			l1.4,0.3c5.4,1.6,10.8,2.8,16.4,3.6c5.3,0.7,10.5,1.1,15.9,1.1h1.1c6.5-4.4,11.8-8,15.6-10.7l4.5-2.9c0.9-1.1,1.7-2.3,2.2-3.6
			c-1.5-2.1-2.5-4.5-2.9-7c-0.2-1-0.3-2.1-0.3-3.1c0-0.3-0.1-0.7-0.3-0.9c-0.9-0.7-2.1-1-3.2-0.9l-2.1,0.1l-4.6-0.3
			c-0.8-0.1-1.5-0.6-1.9-1.3l-0.2-0.9l1.6,0.4v-1.9l-1.2,0.3c-1,0.3-1.6,0.6-1.7,1c-0.1,0.2,0,0.4,0.1,0.5c0.6,0.8,1,1.8,1,2.8
			c-0.1,2.3-0.3,4.5-0.6,6.8c3-2.3,6.2-4.3,9.6-6c-0.4-0.1-0.8-0.2-1.2-0.2c-0.2,0-0.3,0-0.5,0c-0.3-0.1-0.5-0.3-0.6-0.5
			c0-0.2,0.1-0.4,0.4-0.6c0.2,0,0.4,0,0.5,0c1.2,0,2.3,0.1,3.5,0.4c0.4,0.1,0.6,0.3,0.6,0.4c0,0.2-0.2,0.5-0.8,0.8
			c-4.2,2-8.1,4.4-11.8,7.3c-2.9,2.7-6.1,5.1-9.5,7c-0.8,0.2-1.6,0.3-2.4,0.3c-0.4,0-0.9,0-1.3-0.1c-1.7-0.2-4.4-0.6-8.1-1.2
			c-3.8-0.6-7.1-1.2-9.9-1.9C298.1,333.9,294.9,333.5,291.7,333.3L291.7,333.3z M280.8,345.2l-1.5,0.8l3,1.4c0.2,0,0.3,0,0.5,0
			c0.8,0,1.6-0.3,2.2-0.9l1.9-1.2l2.3-2.9l0.4,1.4l0,0c0.1,0.1,0.2,0.1,0.3,0.1c0.5,0,1.1-0.6,2-1.7c0.3-1.1,0.2-2.3-0.1-3.3
			c-1.3-2.4-3-4.6-4.9-6.4l-0.6-0.6l-1.1,0.5l-2.1-0.9c-0.8-0.3-1.6-0.4-2.4-0.4c-1,0-1.9,0.2-2.8,0.6c0.7-0.1,1.5-0.1,2.2-0.1
			c1.1,0,1.6,0.2,1.7,0.5c0.8,1.4,1.5,3,2.1,4.6c0.8,1.9,1.2,3.9,1.1,6l-2.7,2.6c-0.5,0.6-0.9,0.9-1,0.9c0,0,0,0-0.1,0
			c0-0.1,0-0.3,0.1-0.5L280.8,345.2L280.8,345.2L280.8,345.2z M308.6,333.2l-3,1c3.3,0.6,5.7,1.1,7.2,1.3l0,0
			c-0.7-1-1.2-2.1-1.5-3.3c-0.2,0.8-0.9,1.3-1.7,1.2C309.3,333.3,308.9,333.3,308.6,333.2L308.6,333.2z M253.4,331.6l-1.2,3.4
			l5.2-0.9L253.4,331.6L253.4,331.6z M247.3,323.6c0.3,0,0.6,0.1,0.9,0.4l1.1,1.4l5.9,3.9l6.5,3.9l3.8-0.7c-1.1-0.7-2.4-1.6-3.9-2.8
			c-0.2-0.8-0.7-1.4-1.3-1.9l-1,0.3l0.4,2.1l-1.6-0.3c-0.1-1-0.8-1.9-1.7-2.3c-1.1-0.7-2.4-1.6-4.5-3c-1.9-1.3-3.6-2.8-5.2-4.6
			c-1.1-1-2-2.3-2.7-3.6c-0.1-0.6-0.5-1.2-1-1.6c-0.4-0.3-0.6-0.9-0.5-1.4l0.2-1l0.5-3.3l-0.8-0.4l-0.5,1.6
			c-0.1,0.3-0.2,0.4-0.3,0.4c-0.3,0-0.8-0.5-1.4-1.6c-1.6-2.5-3.3-4.9-5.2-7.2l-2.8-3.3l-0.3,0.9c1.4,2,2.5,3.8,3.5,5.4
			s1.8,3,2.4,4.1c1,1.7,2.1,3.3,3.2,4.9l1.8,3.6l3.2,3l0.1,2c-0.4-1-1-1.9-1.7-2.6c-0.2-0.2-0.5-0.3-0.7-0.3s-0.4,0.1-0.5,0.2
			c-0.3,0.3-0.7,0.5-1.1,0.5c-0.9,0-1.9-0.9-3.1-2.6c-1-1.4-2-3-2.8-4.6c0.1-0.9,0.6-1.8,1.4-2.2l-0.7-0.8l-0.9,0.8l-3.9-5.6
			l0.5-0.8l-0.5-0.8l-0.6,0.4l-1-1.8l-0.3,0.9l0.5,1.2l-0.7,0.3l0,0c-0.1,0-0.2,0-0.3-0.1c-0.3-0.3-0.2-1.3,0.2-3
			c1-2.9,2.5-6.8,4.6-11.5c0-1.5,0.2-3.1,0.4-4.6c-2.3,4-4.1,8.2-5.4,12.6c-0.5,1.8-0.8,3.5-1.1,5.3c-0.1,0.3-0.1,0.7,0,1
			c0,0.1,0.1,0.3,0.1,0.4s0.1,0.2,0.1,0.4c0.1,0.1,0.2,0.2,0.3,0.2c0.1,0.1,0.2,0.1,0.3,0.2c0.1,0,0.3,0.1,0.4,0.1
			c0.1,0,0.2,0.1,0.3,0.1l0,0c0,0,0,0,0.1,0h0.1l0,0c0.1,0,0.3-0.1,0.4-0.1c0.2,0,0.4,0,0.6,0.1l3.1,5.6c-0.3,0.2-0.6,0.4-0.9,0.4
			c-0.8-0.1-1.5-0.4-2.1-0.9c-1.3-1.1-2.4-2.6-3.1-4.2c-0.7-1.3-1.3-2.7-1.8-4s-1-2.9-1.4-4.6c-0.5-1.8-1.8-5.4-3.9-11.2
			c-1.2-3.8-2.9-7.5-5-11c-0.6-1-1.4-1.9-2.4-2.4c-0.1,0-0.1,0-0.2,0c-0.4,0-0.8,0.4-1,1.1c-0.2,1.4-0.2,2.8-0.1,4.2
			c0,1.9,0.2,3.7,0.5,5.5c0.8,3.8,2.1,7.5,3.8,11c2.4,4.7,5.5,9.1,9.2,12.9c-1.8-3.2-3.7-6.8-5.6-10.6c-1.7-3.6-3.2-7.2-4.5-11
			c-0.6-1.6-1-3.2-1.3-4.8c0-0.2,0-0.3,0-0.5l0,0c0.1,0,0.2,0.2,0.3,0.6c0.3,0.8,0.9,2.5,1.8,5.3c2.1,5.1,4.5,10.2,7.1,15
			c1.4,3.1,3.1,6.1,5.2,8.9c0.9,1.1,2.3,1.9,3.7,2.3c0.1,0,0.3,0,0.4,0c0.5,0,1-0.1,1.4-0.4l0.9,0.7l2.7,4.6l2.8,3.4
			c0.7,0.9,1.8,1.5,2.9,1.5c0.6,0,1.2-0.2,1.8-0.5c0.3,0.7,0.6,1.1,1.1,1.1c0.1,0,0.2,0,0.4-0.1
			C246.9,323.7,247.1,323.6,247.3,323.6L247.3,323.6z M300.9,331L300.9,331l-3,1.5l2.8,0.4c0.2-0.1,0.3-0.1,0.5-0.1s0.3-0.1,0.5-0.1
			v0.2h0.4v-0.4c1.5-0.4,2.8-1.3,3.7-2.6c0.3-1.2,0.4-2,0.2-2.3c-0.1-0.1-0.1-0.1-0.2-0.1s-0.2,0-0.4,0c-1,0-1.9,0.3-2.6,0.9
			c-0.9,0.5-1.3,1.5-1,2.4l0.4,1.4l-0.4,0.2L300.9,331L300.9,331z M283.8,329.7c0.6,0,1.2,0.1,1.7,0.4c1,0.8,2,1.7,2.9,2.7h3.3
			c0.9-2.1,2.5-3.8,4.4-5.1c3.8-2.1,7.7-4,11.8-5.7c0.1,0,0.1,0,0.2,0c0.2,0,0.4,0.1,0.5,0.3c0.6,0.4,1,1,1.4,1.6
			c1.5-0.7,2.6-1.9,3.3-3.3c0.8-1.7,1.9-3.3,3.2-4.5c1.4-1,2.2-2.7,2.1-4.4l-0.3-3.2c0.4-0.7,1-1.4,1.6-2c0.2-0.1,0.4-0.2,0.5-0.2
			c0.5,0,0.9,0.1,1.4,0.3c0.2,0.1,0.3,0.1,0.4,0.2l0,0c0.1,0.1,0.3,0.1,0.4,0.2l0,0c0,0,0.5-0.8,1.1-1.8c-0.1,0.1-0.1,0.2-0.2,0.3
			l0,0l-0.2,0.3l-4.6-2.1c-1.4,1.6-2.9,3.1-4.5,4.4l2.1,4.6L316,313c-0.9,0.7-4.4,3.3-5.3,3.8l-0.3,0.2l-3.8-3.4
			c-1.8,1.1-3.7,2-5.6,2.9l0.6,5l-0.4,0.1c-1,0.4-5.1,1.7-6.2,2l-0.4,0.1l-2.5-4.4c-2,0.5-4.1,0.8-6.2,1l-1,5h-0.4
			c-0.8,0-2.8,0-3.2,0c-1.2,0-2.7,0-3.3,0h-0.4l-1-5c-2.1-0.2-4.2-0.5-6.2-1l-2.5,4.4l-0.4-0.1c-1-0.3-5.2-1.6-6.2-2l-0.4-0.1
			l0.6-5.1c-1.9-0.8-3.8-1.8-5.6-2.8l-3.7,3.4l-0.3-0.2c-1-0.6-4.5-3.2-5.3-3.8l-0.3-0.2l2.1-4.6c-1.6-1.4-3.1-2.9-4.5-4.4l-4.5,2
			c0.6,0.9,1.3,1.8,2,2.7c0.3-1.2,0.6-1.4,0.8-1.4h0.1c0.9,0.2,1.7,0.6,2.3,1.2c0.2,0.3,0.2,0.6,0.2,0.9l-0.4,2.7
			c-0.2,2.3,0.7,4.6,2.4,6.2l2.7,3c1.1,1.3,2.4,2.4,3.9,3.3c0.4-0.9,1-1.7,1.9-2.2c0.1,0,0.2-0.1,0.3-0.1c1.4,0,6.1,1.7,13.9,5
			l4.2,4.6c0.3,0.1,0.6,0.1,0.9,0.1c0.5,0,1-0.1,1.4-0.3c1.1-0.8,2.4-1.2,3.8-1.2c0.5,0,1,0.1,1.6,0.2
			C282.1,329.9,282.9,329.7,283.8,329.7L283.8,329.7z M256.7,323.6c0.6,0,1.2,0.2,1.8,0.6c0.8,0.5,1.4,1,2,1.7
			c1.1,1.3,2.1,2.5,3.3,3.9l3.7,2.6l0,0c1.6,0,3.2-0.1,4.6-0.3c-0.9-1.4-2-2.6-3.2-3.8l-7-2.7l-4.1-2c-0.3-0.2-0.7-0.3-1.1-0.3
			c-0.3,0-0.5,0-0.7,0.1c-0.6,0.4-1,1.1-1.1,1.8l0.2,0.2c0.2-0.7,0.7-1.3,1.3-1.7C256.4,323.6,256.6,323.6,256.7,323.6L256.7,323.6z
			 M307.4,323.5c-0.1,0-0.2,0-0.2,0c-3.3,1.1-6.6,2.5-9.7,4.2c-1,0.6-1.9,1.3-2.7,2.1l-1.4,1.9l2.7,0.2c1-0.5,2.2-1.1,3.4-1.8
			c0.5-0.3,0.8-0.7,0.9-1.3c0.2-1.1,1-2,2.1-2.3c0.9-0.5,2-0.7,3-0.7c0.1,0,0.2,0,0.3,0c0.7,0,1.3-0.2,1.8-0.6l0.9-0.6l-0.7-0.9
			C307.8,323.6,307.6,323.5,307.4,323.5L307.4,323.5z M284.2,330.8L284.2,330.8l1.9,0.9l0.1,0.1h0.1l-0.2-0.1l-0.9-0.8L284.2,330.8z
			 M319.6,309.6L319.6,309.6l0.3,2.1l-0.1,2.1c-0.4,1.3-1,2.5-2,3.5c-1,1.1-1.9,2.3-2.6,3.6c-0.6,1.7-2.9,3.6-6.9,5.7l-1,0.9
			c0,1-0.1,2-0.4,2.9l2.8-1.2l5.8-3.5l0.3-2.1c0.6,0.6,1.4,0.9,2.2,0.9c0.4,0,0.8-0.1,1.1-0.2c1-0.4,1.9-1.1,2.4-2.1
			c1-1.5,2.2-2.9,3.4-4.2c1.3-1.5,2.9-2.8,4.6-3.8c-0.4-1.4,0-2.9,1.1-3.9l2.8-2.6c-0.8-1.7-0.3-3.8,1.1-5c-0.5-1.3-0.4-2.8,0.1-4
			c-2.4,5.2-3.8,8.2-4.4,9.2c-0.5,1-0.9,1.4-1.3,1.4h-0.1c-0.5-0.8-0.7-1.8-0.4-2.8l-0.9,1.6l0.1,3c-4.1,5.3-6.8,8.3-8.1,8.9
			c-0.7,0.3-1.4,0.7-1.9,1.3c-0.2,0.1-0.4,0.1-0.6,0.2c-0.1,0-0.2,0-0.2-0.1c-0.1-0.1,0-0.3,0.2-0.7c0.6-0.6,1.3-1.1,2.1-1.4
			c1.2-0.9,2.2-2.1,2.8-3.4c1.6-3.7,3.6-7.2,5.9-10.5c1.9-3,4.1-5.9,6.4-8.7l0.1-2.1c-1.1,1.1-2.4,2.5-3.9,4.2
			c-1.6,1.7-3,3.5-4.4,5.4c-1.4,2-2.7,4.1-3.9,6.2c-0.2,0.2-0.5,0.3-0.8,0.3C320.6,310.6,320,310.2,319.6,309.6L319.6,309.6z
			 M270,318.2L270,318.2l0.4,0.1c2.2,0.5,4.5,0.9,6.8,1h0.4l1,5c0.3,0,1.3,0,2.8,0c1.2,0,2.2,0,2.8,0l1-4.9h0.4
			c2.3-0.2,4.6-0.6,6.8-1.1l0.4-0.1l2.5,4.4c1.3-0.4,4.2-1.3,5.4-1.8l-0.6-5l0.3-0.1c2.1-0.9,4.2-2,6.1-3.1l0.3-0.2l3.7,3.4
			c1.1-0.8,3.6-2.6,4.6-3.3l-2.1-4.6l0.3-0.2c1.8-1.5,3.4-3.1,4.9-4.9l0.2-0.3l4.6,2.1c0.5-0.7,1.6-2.2,2.5-3.5
			c-0.2-0.4-0.3-0.8-0.3-1.2c-0.6-0.6-1.1-1.1-1.7-1.6c-2.1-1.9-3.9-3.6-3.5-5.7c-0.5-0.8-0.8-1.7-0.9-2.7c0-0.9,0.6-1.8,1.4-2.1
			c0.3-0.1,0.5-0.1,0.8-0.1c0.6,0,1.2,0.3,1.7,0.7c-0.4-1.6-1.1-3.1-2-4.4v-0.1c-0.4-0.6-0.8-1.3-1.1-1.9c-1.8,6-4.9,11.4-9.1,16
			l-0.5,0.6L298,280l6.4,21.5l0.5,1.6l-1.4-0.9l-18.7-12.9l13.7,17.8l-0.7,0.3c-5.2,2.3-10.8,3.5-16.5,3.5h-0.1
			c-5.8,0-11.5-1.3-16.7-3.7l-0.7-0.3l13.9-17.5l-18.5,12.8l-1.4,0.9l0.5-1.6l6.5-21.8l-12.7,18.6l-0.5-0.6c-2.9-3.3-5.3-7-7.1-11
			c-0.2,1.1-0.6,2.2-1.3,3.1c-0.1,0.1-0.3,0.3-0.3,0.5c-0.1,2.8-0.5,5.5-1.3,8.1c-0.5,1.9-1.3,3.8-2.4,5.5l0.4,0.5l0.1,0.2l4.6-2.1
			l0.2,0.3c1.5,1.7,3.2,3.3,4.9,4.9l0.3,0.2l-2.1,4.6c1,0.8,3.4,2.5,4.6,3.3l3.7-3.4l0.3,0.2c2,1.2,4,2.2,6.2,3.1l0.3,0.1l-0.6,5
			c1.3,0.4,4.1,1.4,5.4,1.8L270,318.2L270,318.2z M238.5,312.2L238.5,312.2l-0.9,1.2l1.5,2l1.4,1.8c0.5,0.8,1.2,1.4,2.1,1.8
			l-0.4-1.3l-1.3-2.3L238.5,312.2L238.5,312.2z M344.2,301.9c0.1,0,0.2,0,0.2,0.1s-0.2,0.3-0.7,0.6c-1.2,0.5-2.3,1.2-3.2,2.1
			c-1.2,3.7-3.6,6.9-6.9,9c1.9-0.6,3.7-1.4,5.5-2.4c0.6-0.2,1.1-0.6,1.3-1.2c0.3-0.6,0.2-1.2,0-1.8c1.8-1.6,3.4-3.3,5-5.2
			c0.8-1.1,1-2.5,0.3-3.7c-0.4-0.5,0.6-2.1,2.9-4.8c0.8-1.1,1.3-2.4,1.4-3.7l0,0c0.3-0.8,0.3-1.7-0.1-2.4c-0.1,0-0.2,0-0.3,0
			c-0.5,0-0.9-0.2-1.2-0.5c-0.7-1.1-1-2.5-0.8-3.8c-0.3-1.7-0.7-2.5-1.2-2.5c-0.2,0-0.4,0.1-0.5,0.3c-0.6,1.4-1.3,2.1-2,2.1
			c-0.1,0-0.3,0-0.4-0.1c-0.3-0.1-0.5-0.1-0.8-0.2c-0.3,0-0.5,0.1-0.6,0.4v0.1c0.1,1-0.1,2-0.6,2.8c-0.2,0.2-0.5,0.3-0.8,0.3
			s-0.5-0.1-0.7-0.2l-2.2-1.4c-0.3-0.1-0.7-0.2-1-0.2s-0.5,0.1-0.7,0.3c-0.3,0.4-0.1,1.2,0.4,2.4l1.5,2c0.4,1,0.4,1.7,0.2,2
			c-0.1,0.1-0.2,0.2-0.4,0.2c-0.3-0.1-0.5-0.1-0.8-0.1c-0.8,0-1.3,0.4-1.3,1.2c0.1,1.5,0.7,2.9,1.7,4.1c0.4,0.4,0.7,0.9,0.7,1.4
			c0,0.3-0.2,0.6-0.5,0.7c-0.3-0.1-0.7-0.2-1-0.2s-0.7,0.1-1,0.2c0.1,1.1,0.4,2.1,0.9,3c0.1,0.1,0.1,0.2,0.1,0.3
			c-0.1,0.2-0.3,0.4-0.8,0.6c-0.6,0.1-1,0.6-1.1,1.1c0.5,2.4,0,5-1.4,7c1.2-1,2.3-2,3.3-3.2c1.1-1.3,2.1-2.8,2.7-4.4
			c-0.5-0.8-1.1-1.6-1.8-2.2c-0.3-0.3-0.5-0.6-0.4-0.6c0,0,0,0,0.1,0s0.3,0.1,0.4,0.1c0.9,0.5,1.6,1.3,2.2,2.1
			c1-2.2,1.9-4.5,2.4-6.9c-0.7-2.7-1.8-5.2-3.3-7.5c-0.4-0.6-0.5-1-0.5-1l0,0c0.1,0,0.4,0.4,1.1,1.1c1.4,1.9,2.4,4,3.2,6.2
			c0.7-2,1.2-4,1.6-6.1l-1.1-3.6c0.6,0.8,1.1,1.8,1.4,2.8l0.9-3c0.2-0.4,0.3-0.7,0.4-0.7l0,0c0,0.5,0,1.1-0.1,1.6
			c-0.6,2.8-1.3,5.5-2.1,8.3c1.5-1.3,2.9-2.8,3.9-4.6c0.3-0.3,0.4-0.4,0.5-0.4l0,0c0,0.1-0.2,0.5-0.6,1.1c-1.1,1.9-2.5,3.7-4.2,5.2
			c-0.4,2.4-1.2,4.8-2.3,7C341.8,303,342.9,302.4,344.2,301.9C344.1,301.9,344.1,301.9,344.2,301.9L344.2,301.9z M281.3,286.9
			l-0.2,0.1l-15.4,19.4c4.9,2.1,10.1,3.3,15.5,3.2h0.1c5.3,0,10.4-1.1,15.3-3.1L281.5,287L281.3,286.9z M234,304.9l-0.5,0.5l2.7,4
			l0.3-0.5L234,304.9L234,304.9z M239.6,272.2L239.6,272.2c0.1,0.4,0,0.8-0.1,1.1c-0.4,4.6-0.6,8.9-0.7,12.6
			c-0.1,3.8-0.2,6.7-0.3,8.9c-0.1,2.2-0.1,4.9-0.1,8.5l0.2-0.3l0.9-1.9c1.4-2.9,2.2-6.1,2.3-9.3c0.4-4,0.4-8.1,0-12.2
			c-0.1-3.1-0.7-6.2-1.5-9.2c-1.1,0.3-2.2,2.8-3.4,7.6c-0.8,3.5-1.3,7-1.5,10.6c-0.1,4.2,0.2,8.5,1,12.6l1.1,1.3l0.2-6.7l0.1-4.9
			c0.1-6.1,0.6-12.2,1.6-18.3C239.4,272.3,239.5,272.2,239.6,272.2L239.6,272.2z M229.2,292.3L229.2,292.3c-0.8,3.2-1.2,6.5-1.2,9.8
			c0.2-1.6,0.5-3.2,0.9-4.7c1.5-4.5,3.4-8.9,5.8-13c0.2-1.8,0.5-3.5,0.9-5.2c-0.6,0.8-1.3,1.7-1.9,2.6l0.1,0.3l-0.4,0.2
			C231.5,285.4,230.1,288.8,229.2,292.3L229.2,292.3z M325,294.6c-0.3,0.5-0.6,1-0.9,1.5l3.4,3.7l-0.2,0.3c-0.1,0.2-0.3,0.4-0.4,0.6
			c0.6-0.6,1.2-1.3,1.7-2.1c-0.1-0.4-0.3-0.7-0.5-1c-0.8-0.9-1.6-1.7-2.4-2.4C325.4,295,325.2,294.8,325,294.6L325,294.6z
			 M271.3,258.9l-24.6,0.6l19.6,15l1.7,0.6l-1,1.5l-7.1,23.7l20.3-14.1l1.1-1.4l0,0l1.1,1.4l20.4,14.1l-7-23.5l-1.1-1.6l1.7-0.6
			l19.7-15.1l-24.5-0.6l-1.9,0.5l-0.1-1.9l-8.2-23.3l0,0l-8.2,23.3l-0.1,1.9L271.3,258.9z M234.3,293.7L234.3,293.7l-1.4,3.4
			l1.9,2.4l0,0C234.5,297.6,234.3,295.6,234.3,293.7L234.3,293.7z M331.2,291L331.2,291c-0.2,0.6-0.4,1.2-0.6,1.9
			c-0.2,0.7-0.5,1.3-0.9,1.9c-0.3,1-0.3,2,0,3c1.4-1.8,3.1-3.5,4.8-5c0.3-2.8,0.3-4.4-0.1-4.9c-0.1-0.1-0.2-0.1-0.3-0.1
			c-0.6,0-1.1,0.6-1.3,1.9c-0.1,0.5-0.2,0.8-0.3,0.8c-0.1,0-0.1-0.3-0.2-0.8c-0.1,0.4-0.3,0.8-0.4,1l-0.1,0.4L331.2,291z M327,290.5
			L327,290.5c-0.5,1.2-1.1,2.4-1.7,3.5l0.3,0.2c1.1,0.8,2.1,1.7,3,2.7c-0.1-2.1-0.4-4.2-0.7-6.3L327,290.5z M320.1,267.4
			L320.1,267.4l-23.3,8.3l-0.1,0.1l0.1,0.2l13.7,20.7c4.1-4.7,7.1-10.2,8.6-16.3c-0.2-0.4-0.3-0.9-0.4-1.3c-0.1-0.9,0.3-1.6,1-1.7
			C320.3,274,320.4,270.7,320.1,267.4L320.1,267.4z M321.2,288.6c-0.3,0-0.5,0.1-0.7,0.3c-0.4,0.6-0.5,1.4-0.2,2s0.6,1.2,1.1,1.8
			c-0.4,1.3,0.1,2.8,1.4,3.4l0.1,0.1l0.2,0.2l-0.2-0.2l0.2-0.3c0.4-0.7,0.8-1.4,1.2-2.1c-0.6-0.6-1.1-1.2-1.6-1.9
			c-0.2-0.2-0.3-0.4-0.2-0.4l0,0c0.2,0.1,0.4,0.1,0.5,0.3c0.5,0.5,1,1.1,1.5,1.5c0.3-0.6,0.6-1.2,0.9-1.9c-0.1-0.3-0.1-0.5-0.1-0.8
			c0.3-1.3,0.5-2.6,0.4-3.9l-0.3-0.3l0.3-0.3c0.2-1.6,0.2-3.2-0.1-4.8c-0.1-1.2-0.5-2.3-1.1-3.3c-0.1-0.2-0.3-0.3-0.5-0.3
			c-0.5,0-1.3,0.5-2.3,1.6c-0.3-0.3-0.6-0.6-1-0.7c-0.1,0.5-0.2,1.1-0.4,1.7c0.1,0.2,0.2,0.3,0.2,0.5c0.8,1.1,1.5,2.3,2.2,3.5
			c0.4,0.8,0.7,1.7,1,2.6s0.3,1.9,0,2.8C323,289.2,322.1,288.7,321.2,288.6L321.2,288.6z M245.1,275.5L245.1,275.5
			c0.5,0.3,0.8,0.9,0.7,1.4c0,2.6-0.2,5.2-0.8,7.7c1.6,4.3,4,8.2,7,11.7l14-20.4l0.1-0.2l-0.2-0.1l-23.2-8.6
			c-0.2,2.2-0.2,4.3-0.1,6.5c0.5-0.2,1.1-0.3,1.6-0.3c0.3,0,0.5,0,0.8,0.1c0.3,0.4,0.3,1,0,1.4l-0.5,1
			C244.7,275.6,244.9,275.5,245.1,275.5L245.1,275.5z M328.5,290.7c0.3,1.1,0.5,2.1,0.7,3.2c0.3-0.5,0.6-1,0.9-1.5
			c0.1-0.2,0.2-0.4,0.3-0.6l0.1-0.2l0.2-0.4l0.1-0.2L328.5,290.7z M226.9,267.3c-0.4,0.9-0.8,1.8-1.2,2.7c-0.7,1.7-1.2,3.5-1.4,5.4
			c0.3,2.7,1.1,5.3,2.2,7.7c0.7,0.5,0.9,1.5,0.4,2.2c-0.1,1,0,2.1,0.4,3.1c0.3,1.2,0.7,2.4,1.3,3.5c0.3-1.3,0.6-2.5,1.1-3.7
			c-0.5-1.6-1-3.1-1.2-3.7l-0.1-0.4l4.4-2.5c-0.4-2.1-0.8-4.1-1-6.2l-5-1V274c0-1.1,0-5.5,0-6.5L226.9,267.3L226.9,267.3z
			 M325.1,276.2c0.4,0,0.8,0.3,0.9,0.7c0.1,0.6,0.3,1.2,0.5,1.8c0.3,1.1,0.4,2.3,0.4,3.4c0,0.9,0,1.8,0.2,2.7
			c0.1,0.3,0.1,0.6-0.1,0.9c-0.1,0.4-0.4,0.6-0.7,0.7c0.4,0.1,0.4,0.2,0.4,0.3l0,0c-0.1,0.6-0.3,1.2-0.5,1.8c-0.3,1.1-0.5,1.7-0.6,2
			c0,0.2,0,0.4,0,0.6c0.2-0.4,0.4-0.8,0.6-1.3l0.1-0.3l1.4,0.1v-0.1c0-0.1,0-0.2,0-0.3V289c-0.1-0.4-0.1-0.8-0.1-1.3l0,0
			c0.1,0,0.2,0.4,0.5,1.2c0.1,0.2,0.1,0.4,0.2,0.6l3.1,0.3c0-0.1,0.1-0.1,0.1-0.2c0.2-0.6,0.5-1.6,0.8-2.5c-0.1-0.2-0.2-0.4-0.4-0.6
			c-0.1,0-0.2,0-0.2,0c-0.4,0-0.8,0.2-1,0.5c-0.3,0.4-0.8,0.6-1.2,0.7c-0.3,0-0.6-1.5-0.7-4.4c0-0.4,0.1-0.9,0.3-1.2L329,282
			l0.1-0.4c0.4-1.8,0.7-3.5,0.9-5.3c0-0.3-0.1-0.7-0.1-1.1c-0.1-0.6-0.3-1.1-0.6-1.6c-0.2-0.4-0.4-0.7-0.7-1c0,0-0.1-0.1-0.2-0.1
			c-0.2,0-0.4,0.2-0.7,0.6c-0.2,0.3-0.4,0.5-0.5,0.5s-0.2-0.1-0.3-0.3c-0.3-0.5-0.6-0.9-1.1-1.1c-0.1-0.1-0.3-0.1-0.5-0.1
			c-0.4,0-0.8,0.3-1.2,0.9c-0.8,1.5-1.3,3.2-1.6,4.9C322.9,277.1,323.9,276.5,325.1,276.2C325,276.2,325.1,276.2,325.1,276.2
			L325.1,276.2z M242.8,281.8L242.8,281.8L242.8,281.8c0.3,2.2,0.4,4.3,0.4,6.4c0.3-0.9,0.5-2,0.7-3
			C243.5,284,243.1,282.9,242.8,281.8L242.8,281.8z M335.9,268.9L335.9,268.9c0,1.7,0,4.3,0,5.2v0.4l-5,1c0,0.3-0.1,0.6-0.1,0.8
			c0.4,1.6,0.4,3.2-0.1,4.8c-0.1,0.3-0.3,0.5-0.5,0.8l4.1,2.3l-0.1,0.4c-0.1,0.4-0.3,1.2-0.7,2.3c0.2-0.1,0.4-0.2,0.7-0.2
			c0.1,0,0.3,0,0.4,0.1c0.3-1.2,0.6-2.4,1.8-2.4c0.5,0,1,0.2,1.4,0.4c0.7-2.5,1.2-5,1.5-7.6c0-0.9,0.1-1.8,0.3-2.7
			c-0.8-1.7-1.8-3.3-3-4.7C336.3,269.4,336.1,269.2,335.9,268.9L335.9,268.9z M231.9,283.3L231.9,283.3l-2.4,1.3
			c0.2,0.6,0.4,1.4,0.7,2.1C230.7,285.6,231.3,284.4,231.9,283.3L231.9,283.3z M329.7,282.7L329.7,282.7c-0.2,0.8-0.2,1.7-0.1,2.5
			c-0.1,0.5,0.1,1,0.4,1.5c0.4-0.3,0.9-0.7,1.1-0.8l0,0h0.1c0.2-0.1,0.4-0.1,0.6-0.1c0.3,0,0.6,0.1,0.8,0.2c0.1,0,0.1,0.1,0.2,0.1
			c0.2-0.6,0.3-1,0.4-1.3L329.7,282.7L329.7,282.7z M340.9,274c-0.3,3.8-0.9,7.6-1.8,11.4l1.2,0.7c0.6-2.5,1.4-6.4,2.5-12.1
			c-0.3,0-0.5,0-0.8,0C341.5,274,341.2,274,340.9,274L340.9,274z M349.4,279.5L349.4,279.5c-0.5,0.2-1.1,0.5-1.5,0.9
			c0.2,0.2,0.3,0.4,0.5,0.6c-0.1,0.4,0,0.8,0.2,1.1c0.1,0.3,0.3,0.6,0.6,0.8c0.1,0.5,0.1,0.9,0.1,1.4l0.9,1.7c0.7-0.2,1.4-0.5,2-1
			c0.4-0.4,0.5-0.9,0.4-1.4l0,0c-0.2-0.4-0.4-0.6-0.8-0.9c0.6-0.5,0.8-1.4,0.5-2.1c0.5-0.7,0.8-1.5,0.9-2.4c0-0.4-0.2-0.8-0.6-1
			c-0.2-0.2-0.5-0.3-0.8-0.3c-0.1,0-0.2,0-0.3,0c0.5-0.9,0.8-1.8,0.9-2.8c0-0.9-0.2-1.8-0.7-2.5c-0.4-0.2-0.9-0.4-1.4-0.4
			c-0.8,0-1.6,0.4-2.1,1c-0.3-0.1-0.5-0.1-0.8-0.1c-1,0-2,0.5-2.6,1.4c-0.7,3-1.3,5.9-1.8,8.7c0.1,0.1,0.3,0.1,0.4,0.1
			c0.7,0,1.6-0.8,2.6-2.4c-0.4-0.9-0.7-1.8-0.8-2.8c0.1-0.5,0.1-0.7,0.2-0.7s0.2,0.3,0.3,0.9c0.1,0.7,0.3,1.4,0.8,1.9
			c0.7-1.5,1.6-2.9,2.6-4.3c0.3-0.4,0.5-0.6,0.6-0.6l0,0c0,0.1,0,0.3-0.1,0.6c-1.2,1.7-2,3.6-2.5,5.6h0.2c0.3-0.1,0.6-0.2,0.9-0.4
			C348.5,279.9,349,279.7,349.4,279.5L349.4,279.5z M243.5,279.1L243.5,279.1c0.1,0.2,0.1,0.4,0.1,0.6v0.1c0.3,1,0.5,2.1,0.9,3.1
			c0.2-1.4,0.4-2.8,0.5-4.2c0.1-0.9,0-1.5-0.2-1.7c-0.1-0.1-0.1-0.1-0.2-0.1c-0.3,0.1-0.5,0.2-0.7,0.4l-0.6,0.8
			C243.2,278.4,243.3,278.8,243.5,279.1C243.4,279.1,243.4,279.1,243.5,279.1L243.5,279.1z M252.1,225.8c-0.5,0.3-1.2,0.8-1.9,1.3
			c-1.2,2.4-2.6,4.8-4.1,7c1.2,7-8.7,20.8-13.2,24.7l0.9,0.5l-0.1,0.4c-0.5,2.2-0.9,4.5-1,6.8v0.4l-4.9,1c0,1.3,0,4.3,0,5.7l4.9,1
			v0.4c0.2,1.9,0.4,3.8,0.8,5.6c0.5-0.7,1-1.4,1.6-2.1l0.7-0.6c0.9-4.1,2-7.2,4.3-8.6c0.1-0.1,0.2-0.1,0.3-0.1s0.1,0,0.2,0.1
			c0.2,0.5,0.4,0.9,0.5,1.4c0-1.6,0.1-3.1,0.3-4.7l0.1-0.8l20.9,7.8l-17.9-13.6l-1.3-1h1.7l22.7-0.5l-21.5-6.4l0.4-0.7
			c5.8-10.1,15.6-17.1,27-19.4l0.8-0.1l-0.9,22.3l7.4-21.2l0.5-1.6l0.6,1.6l7.6,21.4l-0.6-22.4l0.8,0.2c11.4,2.4,21.2,9.6,26.8,19.7
			l0.4,0.7l-21.4,6l22.4,0.5h1.7l-1.3,1L300,273.2l21.2-7.5l0.1,0.8c0.4,3.7,0.3,7.3-0.3,11c0.3,0.1,0.5,0.3,0.7,0.4
			c-0.1-2.1,0.5-4.1,1.8-5.7c0.4-0.5,0.9-0.8,1.5-0.8c0.1,0,0.2,0,0.3,0c0.7,0,1.3,0.4,1.6,1c0.2-0.6,0.8-1,1.5-1c0.1,0,0.2,0,0.3,0
			c0.6,0.3,1.1,0.8,1.3,1.4c0.2,0.5,0.3,1.1,0.4,1.7l4.5-0.9c0-1.3,0-4.3,0-5.7l-5-1v-0.4c-0.2-2.3-0.5-4.6-1.1-6.8l-0.1-0.4
			l2.1-1.2V258c-1.1-0.2-2-0.9-2.5-2c-0.6-0.8-1.1-1.6-1.5-2.2c-0.2-0.3-0.4-0.6-0.5-0.8c-1.4-1.2-2.8-2.3-4.5-3.1
			c-0.8-0.2-1.5-0.7-1.9-1.5s-0.3-1.7,0.1-2.4c0.3-0.3,0.7-0.4,1.2-0.5c-0.1-0.3-0.3-0.5-0.5-0.8c-0.8-1.1-1.9-2.8-1.1-4.1
			c0.3-0.5,0.8-0.8,1.3-0.9c-0.3-0.5-0.5-1.1-0.5-1.6l-1.9,0.9l-0.2-0.3c-1.5-1.7-3.1-3.4-4.9-4.9l-0.3-0.2l2.1-4.6
			c-0.7-0.6-2.3-1.8-3.6-2.7c-0.3,0-0.6-0.1-0.8-0.1c-0.2,0-0.4-0.1-0.6-0.2l-3.3,3l-0.3-0.2c-2-1.2-4-2.2-6.2-3.1l-0.3-0.1l0.6-5
			c-1.2-0.5-4.2-1.4-5.4-1.8l-2.5,4.4l-0.4-0.1c-2.2-0.5-4.5-0.9-6.8-1.1h-0.4l-1-4.9c-0.6,0-1.6,0-2.8,0c-1.2,0-2.2,0-2.8,0l-1,4.9
			h-0.4c-2.3,0.2-4.6,0.5-6.8,1.1l-0.4,0.1l-2.6-4.4c-1.2,0.4-4.1,1.3-5.4,1.8l0.6,5l-0.3,0.1c-2.1,0.9-4.2,1.9-6.1,3.1l-0.3,0.2
			L252.1,225.8z M243.6,273.9L243.6,273.9c-0.3,0.2-0.7,0.3-1,0.5c0.1,0.7,0.2,1.5,0.3,2.2l1.1-1.7c0.2-0.5,0.3-0.8,0.2-0.9
			s-0.2-0.2-0.3-0.1C243.8,273.9,243.7,273.9,243.6,273.9L243.6,273.9L243.6,273.9z M227.5,225.8c-0.3,0-0.8,0.4-1.4,1.1
			c-4.2,4.7-7.1,10.3-8.8,16.3c-1,4.2-1.6,8.4-1.9,12.7c-0.1,3.2,0.1,6.3,0.7,9.4c0.5,2.2,1.1,4.3,1.9,6.4c0.6,1.5,1.8,2.8,3.3,3.5
			c0-0.6,0.1-1.3,0.3-1.9c-0.2,0.2-0.5,0.2-0.7,0.2s-0.4-0.1-0.6-0.1c-1.1-0.7-1.8-1.9-2-3.1c-0.7-2.9-0.9-5.8-0.7-8.8
			c0.6-11.6,2.6-20.4,6.1-26.4c0.3-0.5,0.5-0.7,0.6-0.7l0,0c-0.1,0.5-0.3,1-0.5,1.5c-2,5.2-3.3,10.6-3.8,16.1
			c-0.9,4.9-1.2,9.9-0.8,14.8l0,0c1-4.9,2-8.9,2.8-11.8c0.5-2.6,1.8-7.6,4-15c0.8-2.3,1.3-4.7,1.7-7.2c0.3-2.2,0.3-4.4,0-6.7
			C227.9,225.9,227.7,225.8,227.5,225.8L227.5,225.8z M244.4,234.7L244.4,234.7c-2.2,0.6-4.1,1.9-5.3,3.8c-2.9,4-5.6,8.2-7.9,12.5
			l-3.5,8.2l-3,7.7c-0.2,0.6-0.4,1.3-0.5,2c-0.2,1.8-1,3.4-2.2,4.7v1.4c1.3-1.7,2.2-3.7,2.6-5.8c0.7-1.6,1.6-3.1,2.5-4.6
			c1-1.9,2.3-4,3.4-6.3c1.1-2.2,4.5-7.5,10.4-16.4c0.1-0.1,0.2-0.2,0.3-0.2c0,0,0,0,0.1,0c0.1,0.2-0.2,0.9-1,2.2l-2.8,5.2l-5.6,9.2
			h0.2c4.2-4.2,7.6-9,10.3-14.4l0,0c0,0,0,0,0.1-0.1c0.9-1.8,1.6-3.6,2.1-5.6C244.8,237.1,244.8,235.9,244.4,234.7L244.4,234.7z
			 M338.1,270c0.6,0.9,1.5,2.2,2.6,3.7l2.1-0.1l0.3-4.1c1.2-0.2,2.2-1.2,2.4-2.4c0.2-3-0.1-6-0.8-8.9c-1.6-2.2-3.6-4.2-5.8-5.8
			c-0.4-0.4-0.6-0.6-0.6-0.7l0,0c0.3,0.1,0.5,0.2,0.7,0.4c1.9,1.2,3.6,2.5,5.2,4l-1.3-5.2c-1.7-1.4-3.2-3.1-4.4-5
			c-0.3-0.5-0.5-0.7-0.5-0.8l0,0c0,0,0.2,0.1,0.5,0.4c1.1,1.5,2.4,2.8,3.9,3.8c-0.6-1.9-1.3-3.8-2-5.8c-1.6-2-3.4-3.7-5.5-5.2
			c-0.6-0.4-0.8-0.7-0.8-0.8c0,0,0,0,0.1,0c0.3,0,0.5,0.1,0.7,0.2c1.7,0.8,3.2,1.8,4.6,3.1c-0.7-1.9-1.4-3.8-2.2-5.7
			c-0.9-1.3-2-2.5-3.3-3.5c-0.2-0.2-0.3-0.4-0.3-0.4l0,0c0.2,0.1,0.5,0.2,0.6,0.3c0.9,0.6,1.7,1.3,2.4,2.1l-1.1-3.6
			c-0.1-0.2-0.1-0.5,0-0.7l0,0c0.1,0,0.2,0.2,0.4,0.7l1.2,2.8l1.9,4.8c0.3-1,0.5-2,0.4-3.1c0.1-0.7,0.2-1.1,0.3-1.1s0.1,0.4,0.2,1.2
			c0.1,1.4,0,2.8-0.3,4.2c0.9,2.2,1.7,4.4,2.4,6.8c1-1.5,1.7-3.3,1.9-5.1c0.1-0.7,0.2-1.1,0.3-1.1l0,0c0.1,0.5,0.1,1,0,1.5
			c-0.1,1.9-0.7,3.8-1.6,5.4c0.8,3,1.4,5.6,2.1,7.7c0.9-0.9,1.6-2,1.9-3.2c0.2-0.4,0.4-0.5,0.5-0.5l0,0c0,0.1,0,0.4-0.2,1
			c-0.4,1.4-1,2.8-1.9,4c0.5,2,0.8,4,1.1,6.1c0.2,1.7,0.2,3.5,0.1,5.2c0.6-0.6,0.8-1.5,0.7-2.3c0-0.9,0.2-1.7,0.6-2.5
			c0.5-1.3,1.1-2.6,1.8-3.8c0.5-0.9,0.6-1.4,0.5-1.7c-0.1-0.1-0.2-0.2-0.4-0.2c-0.1,0-0.1,0-0.2,0l-1.5,0.4h-0.1
			c-0.2,0-0.4-0.1-0.5-0.2s-0.2-0.4-0.2-0.6c0.1-1,0.6-2,1.3-2.7c0.6-0.5,1.1-1.2,1.2-2.1c0-1.1-0.4-2.2-0.9-3.2
			c-0.9,0.2-1.7,0.6-2.3,1.3c-0.2,0.3-0.3,0.4-0.4,0.4s-0.1-0.1-0.2-0.4c0.1-0.8,0.3-1.5,0.8-2.1c0.5-0.9,0.7-1.9,0.5-3
			c-0.4-1.5-0.9-3-1.7-4.4c0.3-1.3,0.3-2.1,0-2.5c-0.2-0.2-0.4-0.3-0.7-0.3c-0.5,0-1.1,0.2-1.5,0.5c0.3-2-0.1-4-1.2-5.8
			c-0.5-1.1-1.1-1.7-1.7-1.7c-0.4,0-0.8,0.2-1,0.6c-1.1-1.8-2.5-3.3-4.1-4.5c-0.3-0.2-0.6-0.2-0.9-0.3c-0.3,0-0.5,0.2-0.6,0.4
			c-0.2,0.7-0.5,1.3-0.9,2c-0.4,1.2-0.4,2.6,0,3.8c-1.3,0.3-1.8,1-1.5,1.9l0.9,2.7c0.6,0.8,1.1,1.7,1.3,2.7c0.2,0.9,0.1,1.9-0.3,2.8
			c0.7-0.5,1.5-0.7,2.3-0.8c0.5,0,1,0.2,1.3,0.6c0.2,0.7,0.3,1.5,0.2,2.2c-0.1,1.2-0.2,2.4-0.1,3.6c-0.1,0.4,0.4,0.8,1.5,1.1
			c0.4,0.1,0.8,0.4,1,0.7c0.1,0.3,0.1,0.7-0.1,0.9c-0.1,0.1-0.2,0.2-0.3,0.1c-0.4-0.1-0.8-0.3-1.2-0.5c-0.3-0.2-0.6-0.4-1-0.4
			c-0.3,0-0.5,0.1-0.6,0.4c-0.3,0.3-0.4,0.7-0.3,1.1c0.4,1,1.1,1.9,2,2.4c3.1,2.1,4.7,3.4,4.7,3.9c0,0.1-0.1,0.2-0.1,0.2l0,0
			c-0.4,0-0.8,0.2-1,0.6s-0.2,0.8,0,1.2c0.4,0.8,1.2,1.5,2.1,1.9c1.1,0.7,1.7,2.1,1.3,3.4c0.1,1.2-0.6,2.4-1.8,2.8
			c-0.3-1-0.4-2.1-0.4-3.1c0-0.6-0.5-1.1-1.1-1.3c-0.8-0.4-1.9-3-3.2-7.8l-1.8-0.1c1.6,5.6,2.7,8.5,3.2,8.6c0.7,0.4,1.2,1,1.4,1.8
			c0.1,1.2,0.1,2.4,0,3.6c-0.1,0.6,0,1.3,0.4,1.9c0.3,0.3,0.6,0.4,1,0.4h0.1l-0.8,0.9c-0.6-0.2-1.2-0.6-1.5-1.1
			c-0.5-0.7-0.8-1.6-0.8-2.4c0-0.9,0-1.7,0-2.6c0-0.6-0.2-0.9-0.6-0.9c-0.2,0-0.4,0.1-0.6,0.2c-0.3,0.2-0.6,0.3-1,0.3
			c-0.2,0-0.5-0.1-0.7-0.2c-0.3-0.3-0.4-0.6-0.5-0.9c0.1-0.8,0.3-1.6,0.7-2.4c0.1-0.6,0.1-1.2-0.1-1.8c-0.3-0.3-0.7-0.4-1.1-0.4
			c-0.2,0-0.4,0-0.5,0.1H335c-0.2,0-0.4-0.1-0.5-0.2c-0.3-0.7-0.4-1.5-0.2-2.3l0.1-0.5l-1.5,0.9c-0.2,1.1-0.1,2.2,0.4,3.1
			c0.7,1.5,1.5,3,2.4,4.5C336.5,267.6,337.4,269,338.1,270L338.1,270z M222.1,260.9c-1.5,6.1-2.1,9.5-1.8,10l0.3,0.7
			C221,269.1,221.5,265.6,222.1,260.9L222.1,260.9z M226.7,258.7l-1.4,0.3l-0.5,2.5l-0.6,2.5l-0.4,3.4l1.2-4L226.7,258.7z
			 M232.2,259.5c-0.2,0.2-0.5,0.3-0.8,0.4c-0.5,0.3-0.9,0.7-1.3,1.2c-1.2,1.9-2.2,3.9-3.2,6l4.9-1c0.2-2.1,0.5-4.2,0.9-6.2
			L232.2,259.5z M331.1,259.2L331.1,259.2l-1.2,0.7c0.5,2,0.8,4.1,1,6.2l3.8,0.8C333.2,264.4,332,261.9,331.1,259.2L331.1,259.2z
			 M290.1,232.9l0.7,24.7l0.1,0.2h0.2l23.8-6.6C309.5,241.9,300.5,235.3,290.1,232.9L290.1,232.9L290.1,232.9z M273,232.8
			c-10.4,2.3-19.5,8.8-25,17.9l0,0l23.7,7h0.2l0,0l0.1-0.2L273,232.8L273,232.8z M331.4,251.5l-0.6,0.1c-0.2,0.6-0.3,1.2-0.4,1.9
			l1.5,4.2l0.6-0.3c0.1-0.4,0.3-0.8,0.5-1.2C332.4,254.7,331.7,252.5,331.4,251.5L331.4,251.5z M333.8,254.6L333.8,254.6
			c0,0.2,0,0.4-0.1,0.6l0,0c0.3,0.8,0.4,1.5,0.5,1.8l0.1,0.3l0.9-3.1c0.2-0.5,0.1-1-0.1-1.5c-0.1-0.1-0.2-0.2-0.4-0.2
			c-0.6,0.1-1.1,0.4-1.6,0.7c0.2,0.6,0.4,1.1,0.5,1.6v-0.1C333.7,254.7,333.7,254.6,333.8,254.6L333.8,254.6z M328.5,251.9
			L328.5,251.9l-2.1,0.3c0.5,0.5,1,1.1,1.5,1.7c0.4,1.3,1.3,2.3,2.5,2.8l-1.7-4.5L328.5,251.9z M230.6,249.3l-1.6,0.4l-1.8,5.6
			l0.7,0.1C228.6,253.3,229.5,251.3,230.6,249.3L230.6,249.3z M225.5,247.6L225.5,247.6c-0.7,2.3-1.3,4.7-1.6,7l2.3-6.2L225.5,247.6
			L225.5,247.6z M332,250.5L332,250.5l0.1,0.4c0.1,0.4,0.4,1.1,0.8,2.2c0.2-1.1,0.8-2.1,1.6-2.9c0.8-0.6,1.1-1.5,1-2.5
			c-0.1-0.9-0.1-1.9,0-2.8c0.2-0.6,0.1-1.3-0.4-1.8c0,0-0.1,0-0.2,0c-1.2,0-2.7,1.2-4.6,3.7l0.9-2.4c0.9-1.9,1.1-4,0.6-6
			c-0.5-0.7-1.1-1.2-1.8-1.5c-0.7,0.4-1.4,1.1-1.8,1.8c-0.5,0.5-0.8,0.8-1.1,0.8c-0.1,0-0.3-0.1-0.3-0.3l0.4-2.7
			c0-1-0.5-1.9-1.4-2.4c-0.9-0.4-1.9-1-3-1.6c-0.2,0.7-0.4,1.4-0.8,2.1c-0.4,0.6-0.6,1.3-0.7,2l1.8-0.8l0.2,0.3
			c0.2,0.2,0.4,0.5,0.8,1.1l0.2,0.1v0.1v0.1c0,0.1,0,0.1,0.1,0.2c1.1,1.4,2.3,3.2,2.7,3.8l0.2,0.3l-1.3,1.4c0.2,0.9,0.4,1.7,0.6,2.4
			c0.5-1.7,1.1-3.3,2-4.8c0.3-0.5,0.6-0.9,0.9-1.3l0,0c-0.1,0.4-0.2,0.8-0.5,1.1c-1.1,1.9-1.8,4-2.1,6.2l1.8,4l1.5-0.2
			c0.6-1.8,1.6-3.4,2.7-4.9c0.3-0.4,0.5-0.6,0.5-0.6l0,0c-0.1,0.3-0.2,0.6-0.4,0.8c-1,1.4-1.8,2.9-2.4,4.6L332,250.5L332,250.5z
			 M330.2,251.7l-0.7,0.1l0.4,0.9C330,252.3,330.1,252,330.2,251.7L330.2,251.7z M322,246.6c-0.9,0-1.4,0.3-1.5,0.8
			c-0.1,0.8,0.2,1.5,0.9,1.8c1.8,0.6,3.5,1.6,4.9,2.9l-0.1-0.3c-0.4-0.9-0.7-1.7-1.1-2.5c-0.7-0.4-1.4-0.7-2.2-0.9
			c-0.5-0.2-0.7-0.3-0.7-0.4c0,0,0,0,0.1,0c0.2,0,0.4,0,0.6,0.1c0.7,0.2,1.3,0.5,2,0.8c-0.5-1.1-1.1-2.2-1.8-3.2l-0.2-0.3l1-1.1
			c-0.5-0.3-0.9-0.6-1.4-0.9c-0.4-0.3-0.6-0.5-0.6-0.5l0,0c0.2,0.1,0.4,0.1,0.5,0.3c0.6,0.3,1.1,0.6,1.7,0.9l1.1-1.2
			c-0.3-1.2-0.6-2.5-0.9-3.8c-0.6-0.8-1.1-1.5-1.5-1.9l-1.5,0.7l0,0c-0.1,0.9,0.1,1.9,0.8,2.7l0,0c-0.9,0-1.6,0.2-1.9,0.7
			c-0.3,0.4-0.2,1.2,0.3,2.2l0.7,1c0.5,0.7,0.9,1.5,1.2,2.3C322.3,246.6,322.1,246.6,322,246.6L322,246.6z M326.6,250.2
			c0.1,0.3,0.2,0.5,0.4,0.9l0.6-0.1C327.3,250.7,327,250.5,326.6,250.2L326.6,250.2z M324.7,244.8L324.7,244.8l-0.6,0.6
			c0.8,1.3,1.5,2.7,2.2,4.1c0.6,0.3,1.2,0.7,1.9,1.1c-0.7-1.7-1.3-3.1-1.9-4.4C325.8,245.7,325.2,245.3,324.7,244.8L324.7,244.8z
			 M251,217.9c-0.6,0-1.3,0.2-1.8,0.6c-3.3,2.7-6.1,6-8.1,9.8l-5,9.3l-5.2,9.1l-0.5,1.3c2.8-4.2,4.8-7.4,5.8-8.9l1.4-2.1
			c3.5-6,6.4-10.4,8.5-13.3c1.2-1.7,2.5-3.4,3.9-4.9c0.2-0.1,0.3-0.2,0.3-0.2l0,0c0,0.1-0.1,0.4-0.4,0.8c-3.1,4.5-5.4,8-6.8,10.3
			c-1.4,2.2-2.7,4.3-3.7,6.1c1.8-1.7,4-2.7,6.4-3.1l3.2-6.2c1-2,1.7-4.1,2.2-6.3C251.5,219.5,251.4,218.7,251,217.9L251,217.9
			L251,217.9z M325.6,243.8L325.6,243.8l-0.6,0.7c0.4,0.3,0.8,0.6,1.2,0.9C326,245,325.8,244.4,325.6,243.8L325.6,243.8z M241,216
			L241,216c0.1,0.1,0,0.4-0.2,1c-1.6,2.1-3.1,4.4-4.3,6.8c-2.5,5.4-5.2,10.7-8.3,15.8l-1.6,2.6l-0.3,1.4c0.3-0.6,0.7-1.1,1.1-1.6
			c0.5-0.6,1.6-1.9,3.5-3.9c4.1-5.2,7.7-10.8,10.8-16.7l4.2-10.8c0.1-0.4,0-0.8-0.3-1.1c-1.4,0.5-2.6,1.4-3.6,2.5
			c-0.6,0.6-1.6,1.8-3.1,3.7c-1.8,2.4-3.3,5-4.6,7.7c-1,2-1.9,4.1-2.8,6.2l-1.6,4.1c2.7-5.8,6-11.4,9.8-16.6
			C240.4,216.4,240.8,216,241,216L241,216z M325.5,240.5L325.5,240.5c0.2,0.6,0.3,1.1,0.4,1.5l0.4-0.4
			C326.1,241.3,325.8,240.9,325.5,240.5L325.5,240.5z M316.1,229.2L316.1,229.2l-1.9,4.3c1.6,1.4,3.1,2.9,4.4,4.4l1.6-0.7
			c0-0.6,0.2-1.1,0.4-1.7c0.3-0.8,0.5-1.5,0.9-2.3c-1.5-0.6-3-1.5-4.2-2.6C316.9,230.2,316.5,229.7,316.1,229.2L316.1,229.2z
			 M322.4,230.7L322.4,230.7c2.2,0.8,4.2,2.1,5.8,3.9c0.5,0.6,0.6,1.4,0.3,2.1c0.6-0.8,1.1-1.2,1.5-1.2c0.2,0,0.5,0.1,0.6,0.3
			l-0.6-1.7c-0.1-0.7,0-1.4,0.4-1.9l-0.2-0.5c-1.9-1.2-3.9-2-6.1-2.4c-1.3-0.1-2.5-0.5-3.6-1.2c-0.5-0.3-0.8-0.5-0.8-0.6l0,0
			c0.4,0.1,0.8,0.2,1.2,0.4c1.1,0.5,2.3,0.8,3.4,0.9c1.9,0.3,3.7,0.9,5.3,1.8l-1-2.3c-0.8-1.3-1.8-2.5-3-3.5
			c-1.4-0.7-2.9-1.2-4.4-1.4c-1.1-0.1-2.2-0.4-3.1-0.9c-0.5-0.3-0.7-0.5-0.7-0.6c0,0,0.1-0.1,0.2-0.1c0.2,0,0.3,0,0.5,0.1
			c0.9,0.5,2,0.8,3,0.9c1.3,0.2,2.6,0.5,3.9,0.9c-0.8-0.9-1.9-2-2.9-3.3c-1.3-1.6-2.5-3.3-3.4-5.2c0-0.1,0-0.2,0-0.2l0,0
			c0.1,0,0.3,0.3,0.6,0.8c1.4,2,2.9,4,4.6,5.8c-0.2-1.6-0.3-3.2-0.2-4.8c0-0.3,0.1-0.4,0.1-0.4c0.1,0,0.2,0.5,0.3,1.3
			c-0.1,1.4,0,2.9,0.3,4.3c1.8,1.7,3.5,3.5,5,5.4c-0.1-1.4-0.1-2.8,0.1-4.2c0.1-0.4,0.1-0.6,0.1-0.6s0.1,0.2,0.1,0.6
			c-0.1,1.8,0.1,3.6,0.5,5.4l0.7,1.5c0-1.3,0.4-2.6,1.2-3.6c0.2-1.9-0.4-3.7-1.6-5.1c-0.5-1.9-0.9-2.8-1.4-2.8
			c-0.6,0.4-1,0.9-1.1,1.6l-1.4-0.5c-0.8-3.9-1.8-6.1-2.8-6.4c-0.2-0.1-0.5-0.1-0.7-0.1c-0.5,0-0.8,0.3-0.9,0.9
			c-1.1-0.9-2.4-1.4-3.8-1.4c-0.2,0-0.5,0-0.7,0c-1.1,0.7-1.6,2-1.3,3.3l0.8,3l-0.6,0.8l-1.3,0.3c-0.3,0.1-0.5,0.4-0.5,0.6
			c0,0.5,0.2,1,0.5,1.4c1.1,1.4,2.5,2.4,4.1,2.9c0.4,0.3,0.6,0.5,0.5,0.7s-0.4,0.3-1.1,0.4c-0.6,0-1.2,0.2-1.6,0.5
			c-0.1,0.2-0.2,0.4-0.2,0.6l0,0c0.7,2.2,2.5,3.9,4.7,4.5L322.4,230.7L322.4,230.7z M313.3,226.6c0.9,0.6,1.6,1.2,2.2,1.6
			c-0.3-0.5-0.5-1-0.6-1.6h-0.2C314.3,226.7,313.8,226.7,313.3,226.6L313.3,226.6z M311.3,211.9c-0.7,0-1.4,0.4-1.6,1
			c-0.2,1.2,0.2,2.3,1.1,3.2c0.2,0.1,0.4,0.4,0.5,0.6c0,0.5-0.2,0.9-0.5,1.2l-1.5,0.6c0.2,2,1.7,3.7,3.7,4.2l-0.6,1
			c-1.2,0.7-1.1,1-0.9,1.4c0.1,0.4,0.6,0.5,2.6,0.5c0.4,0,0.9,0,1.4,0l0,0c0.2-0.4,0.5-0.6,0.9-0.7c-0.8-0.6-1.5-1.3-2.1-2.1
			c-0.4-1.1-0.6-2.2-0.6-3.3c-0.5,0.2-1,0.3-1.5,0.3c-0.3,0-0.6,0-0.9-0.1c-0.4,0-0.6-0.1-0.6-0.2c0-0.1,0.1-0.2,0.3-0.3
			c0.1,0,0.3,0,0.4,0c1.4,0,2.7-0.5,3.7-1.4c-0.8-1.1-1.6-2.1-2.6-3c-0.4-0.4-0.6-0.7-0.6-0.8c0,0,0,0,0.1,0
			c0.5,0.1,0.9,0.3,1.3,0.5c0.8,0.6,1.5,1.3,2.1,2.1c-0.2-1.1-0.2-2.3,0-3.4c0.2-1.3,1.3-2.2,2.6-2.2c0.1,0,0.2,0,0.4,0
			c-0.4-0.2-0.8-0.4-1.3-0.4c-1,0-1.9,0.8-2.7,2.3C313.4,212.4,312.4,212,311.3,211.9L311.3,211.9z M269.6,209.1
			c0.2,0,0.4,0,0.4,0.1s-0.2,0.4-0.8,0.7c-5.6,3.1-10.9,6.7-15.9,10.6v0.5c1.7-0.8,3.4-1.6,5-2.4l0,0c2.3-1.1,4.5-2.2,6.3-3.1
			c2.7-1.4,5.2-3.1,7.4-5.1c1.1-0.9,1.8-2.2,1.9-3.6c-0.8-0.2-1.7-0.4-2.5-0.4s-1.7,0.1-2.5,0.3c-5.9,2.8-11.3,6.6-16.1,11.1l-0.1,1
			c3.9-2.6,7.1-4.7,10-6.6c2.2-1.3,4-2.4,5.6-3.2C268.9,209.1,269.3,209.1,269.6,209.1L269.6,209.1z M271.1,202.2
			c-1.8,0-3.6,0.3-5.3,0.8c-4.1,1.3-7.9,3.3-11.2,6c-3.4,2.8-6.4,6.1-9,9.7l5.1-4.6c3.6-2.8,7.4-5.4,11.3-7.7c1.7-1,3.5-1.8,5.3-2.4
			c-1.3,1.1-2.8,2-4.4,2.7c-4.8,3-9.4,6.3-13.7,10c0.6-0.5,1.4-0.8,2.3-0.8c0.4,0,0.8,0.1,1.2,0.2l1.2-0.8c2.9-2.5,6-4.7,9.3-6.6
			c2.1-1.3,4.4-2.3,6.8-2.8l1.9-2.5c0.2-0.2,0.2-0.6,0.1-0.8c-0.1-0.3-0.4-0.5-0.7-0.5L271.1,202.2L271.1,202.2z M305.7,214.4
			L305.7,214.4l-0.2,2l2.9,0.9l0.9-0.3c-0.8-1.4-1.2-3.1-1.1-4.7l-1.5-0.6c-1.5,0-2.9,0.5-4.1,1.3c-0.3,0.2-0.5,0.3-0.9,0.4h-0.1
			c0-0.1,0-0.2,0.2-0.4c1.1-0.8,2.4-1.4,3.7-1.7c-1.9-0.6-3.7-1.4-5.4-2.3c-1.5,0.5-3.1,0.8-4.7,0.8c-0.5,0-1,0-1.5-0.1
			c-0.4,0-0.7-0.2-1-0.3c0.3-0.1,0.5-0.2,0.8-0.2c0.2,0,0.4,0,0.6,0.1c0.1,0,0.3,0,0.4,0c1.6,0,3.1-0.3,4.6-0.9
			c-0.6-0.6-1.3-1-2-1.3c-1.6-0.7-3.2-1.2-4.9-1.6c-0.3-0.1-0.4-0.2-0.4-0.3s0.2-0.1,0.5-0.1c1.7,0.2,3.4,0.6,5,1.4
			c0.8,0.4,1.7,0.8,2.6,1.2c-1.1-1-2.1-2.2-2.8-3.5c0-0.4,0-0.7,0-0.7s0,0,0.1,0s0.4,0.3,0.7,0.8c0.8,1.1,1.8,2.2,2.7,3.2
			c1.6,1.5,3.5,2.6,5.5,3.1c-1.1-1.2-1.8-2.8-2.1-4.4c0-0.5,0-0.7,0.1-0.7s0.2,0.4,0.4,1.1c0.8,1.7,1.8,3.2,3,4.6l1.2,0.5
			c0.6-0.5,1.4-0.7,2.2-0.7c0.9,0,1.8,0.4,2.5,1l-0.3-2.1c-0.2-0.6-0.7-1-1.3-1c-0.5,0-0.9,0.2-1.3,0.5c-1.2-1.4-2.5-2.7-3.9-3.8
			c-1.1-0.9-2.4-1.7-3.7-2.3c-0.2-0.1-0.5-0.2-0.8-0.2c-0.7,0-1.3,0.4-1.5,0.9l-1.7-1c-1.2-0.7-2.6-1.2-4-1.4
			c-0.3,0-0.5,0.1-0.5,0.3c-0.2,0.7-0.1,1.4,0.4,2c-0.6-0.1-1.2-0.2-1.9-0.2c-0.9,0-1.9,0.2-2.8,0.5c-0.4,0.1-0.6,0.4-0.8,0.7
			c-0.1,0.4-0.1,0.7,0.1,1.1c0.7,1,1.7,1.7,2.9,2.1c-0.7,0.5-1,1.4-0.7,2.1c0.8,0.8,2,1.3,3.2,1.4l2.5-0.3c0.2,0,0.4,0.1,0.5,0.3
			s0.1,0.6-0.2,1.1c-0.1,0.3,0,0.7,0.1,1c0.2,0.2,0.5,0.3,0.7,0.3c0.1,0,0.3,0,0.4,0c0.9,1,2.1,1.5,3.4,1.5c0.4,0,0.8-0.1,1.2-0.2
			L305.7,214.4L305.7,214.4z M318.7,348.1L318.7,348.1c0-0.2-0.4-0.2-0.4-0.2c-0.9-0.2-1.9-0.3-2.8-0.5l0,0
			c-0.9-0.1-1.9-0.3-2.8-0.5v-0.2c0.1,0,0.1,0,0.2,0c0.4,0,0.7-0.1,1-0.4c0.1-0.5,0.2-1,0.4-1.5l0.6-3.5l0,0c0-0.3,0-0.6,0.1-0.8
			l0,0c0-0.3,0.1-0.6,0.1-0.9c-0.2-0.4-0.6-0.6-1-0.6l0.2-0.2c0.2,0,0.4,0,0.6,0.1l0,0c0.2,0,0.5,0.1,0.7,0.1
			c0.5,0.1,0.9,0.2,1.4,0.2c0.1,0,0.2,0,0.3,0l-0.2,0.4c-0.1,0-0.2-0.1-0.3-0.1c-0.2,0-0.5,0.1-0.6,0.3c-0.1,0.3-0.2,0.6-0.2,0.8
			c0,0.3-0.1,0.6-0.2,0.9l-0.6,3.7c-0.2,1.5,0,1.9,1.2,2.1c0.3,0,0.5,0.1,0.8,0.1s0.5,0,0.8-0.1c0.6-0.3,1-0.9,1-1.6h0.4
			L318.7,348.1z M322.1,348.1c-0.1,0-0.2,0-0.2,0v-0.2h0.1c0.1,0,0.3,0,0.4-0.1s0.2-0.3,0.3-0.5c0.1-0.5,0.1-1,0-1.6l-0.2-3.7
			c0-0.3-0.1-0.7-0.1-1l0,0c0-0.2-0.1-0.5-0.1-0.6c-0.1-0.4-0.3-0.4-0.5-0.4c-0.1,0-0.1,0-0.2,0l0,0c-0.1,0-0.1,0-0.2,0v-0.4h1.5
			c0.2,0,0.4,0,0.6-0.1c0.3-0.1,0.6-0.1,0.9-0.1v0.4c-0.1,0-0.1,0-0.2,0c-0.3,0-0.6,0.2-0.8,0.4v1.7l0.4,3.5c0,0.6,0,1.2,0.2,1.8
			c0.2,0.3,0.5,0.4,0.8,0.4c0.1,0,0.1,0,0.2,0v0.2h-1.5C323,348,322.5,348.1,322.1,348.1L322.1,348.1L322.1,348.1z M244.8,347.9
			L244.8,347.9v-0.2c0.4-0.1,0.7-0.3,0.9-0.6c0-0.3-0.1-0.5-0.1-0.8l0,0c-0.1-0.3-0.1-0.6-0.1-0.9l-0.7-3.4l0,0
			c0-0.3-0.1-0.6-0.1-0.8l0,0c-0.1-0.3-0.1-0.5-0.1-0.8c-0.1-0.2-0.3-0.3-0.4-0.3h-0.1c-0.1,0-0.3,0.1-0.4,0.1v-0.4h0.1
			c0.4,0,0.8-0.1,1.2-0.2c0.1,0,0.1,0,0.2,0c0.4,0,0.8-0.1,1.1-0.2c0.2-0.1,0.5-0.1,0.7-0.1c0.4,0,0.7,0.1,1.1,0.3
			c0.5,0.3,0.9,0.9,1,1.5c0.2,0.9-0.2,1.8-1.1,2.1c0.1,0,0.3,0,0.4,0c0.4,0,0.8,0.1,1.1,0.2c0.6,0.3,1,1,1,1.7
			c0.1,0.7-0.1,1.5-0.7,1.9c-0.5,0.4-1.1,0.6-1.7,0.6c-0.1,0-0.1,0-0.2,0c-0.4,0-0.8,0.1-1.1,0.2c-0.3,0-0.6,0.1-1,0.1
			C245.4,347.8,245.1,347.9,244.8,347.9L244.8,347.9z M246.4,343.6L246.4,343.6l0.2,1.5c0.1,0.5,0.2,1,0.4,1.5
			c0.1,0.2,0.3,0.3,0.4,0.3h0.1c0.1,0,0.3-0.1,0.4-0.1c0.3,0,0.7-0.1,0.9-0.4c0.3-0.5,0.4-1,0.2-1.5c-0.1-0.6-0.5-1-1-1.3
			c-0.2-0.1-0.5-0.1-0.7-0.1c-0.3,0-0.6,0.1-0.8,0.2L246.4,343.6z M246.7,339.8c-0.1,0-0.3,0-0.4,0c-0.2,0-0.4,0.1-0.6,0.2v0.4
			l0.5,2.6l0,0l0.4-0.2c0.1,0,0.1,0,0.2,0c0.3,0,0.6-0.2,0.8-0.4c0.3-0.4,0.4-0.9,0.3-1.3C247.7,340.2,247.3,339.8,246.7,339.8
			L246.7,339.8z M251.2,346.9L251.2,346.9v-0.4h0.1c0.1,0,0.3,0,0.4-0.1c0.1-0.1,0.2-0.3,0.2-0.5c0-0.3-0.1-0.5-0.1-0.8l0,0
			c0-0.2-0.1-0.5-0.1-0.7l-0.5-3.6l0,0c0-0.5-0.2-1-0.4-1.5c-0.2-0.2-0.4-0.4-0.7-0.4c-0.1,0-0.1,0-0.2,0v-0.2
			c0.4-0.2,0.9-0.2,1.4-0.2h0.2c0.2,0,0.4,0,0.6-0.1c0.2-0.1,0.4-0.1,0.6-0.1c0.2-0.1,0.5-0.2,0.8-0.2s0.6,0.1,0.9,0.2
			c0.5,0.3,0.9,0.8,1,1.4c0.1,0.9-0.4,1.8-1.3,2.1c0.1,0,0.2,0,0.4,0c0.4,0,0.8,0.1,1.2,0.4c0.5,0.4,0.9,0.9,1.2,1.5
			c0,0.7-0.2,1.4-0.7,1.9c-0.5,0.4-1,0.6-1.7,0.6c-0.1,0-0.2,0-0.2,0c-0.3,0.2-0.6,0.2-0.9,0.2c-0.1,0-0.1,0-0.2,0
			C252.3,346.6,251.8,346.7,251.2,346.9L251.2,346.9z M253.8,342.4c-0.3,0-0.5,0-0.8,0.1h-0.4l0.2,1.7l0,0c0.1,0.2,0.2,0.4,0.2,0.6
			s0.1,0.5,0.2,0.7c0.2,0.2,0.4,0.4,0.7,0.4c0.1,0,0.1,0,0.2,0c0.4-0.1,0.7-0.4,0.9-0.8s0.2-0.8,0-1.1c0-0.6-0.3-1.1-0.8-1.5
			C254.2,342.4,254,342.4,253.8,342.4L253.8,342.4z M252.8,338.7L252.8,338.7c-0.2,0.1-0.4,0.2-0.7,0.2c0,0,0,0.4,0,0.6l0.5,2.4h0.2
			c0.3-0.1,0.6-0.3,0.9-0.4c0.3-0.4,0.4-1,0.3-1.5c0-0.4-0.1-0.7-0.4-0.9C253.4,338.8,253.1,338.7,252.8,338.7L252.8,338.7z
			 M327.7,346.8L327.7,346.8l-0.2-0.2c0.4-0.3,0.6-0.9,0.4-1.4c0-0.9-0.2-1.7-0.4-2.5l-1-5.2h0.4l5,4.4c0.3,0.4,0.7,0.7,1.2,1
			c0.2,0,0.3,0.1,0.5,0.1s0.3,0,0.5-0.1l0.2,0.2c-0.5,0.2-0.9,0.5-1.4,0.8c-0.5,0.2-0.9,0.4-1.4,0.8l-0.2-0.4l0,0
			c0.2,0,0.3-0.1,0.5-0.2c0.1-0.2,0.1-0.4,0.1-0.5c-0.2-0.3-0.5-0.6-0.8-0.8l-0.9-0.8l-2.3,1.2l0.2,0.4l0,0l0,0
			c0,0.7,0.2,1.3,0.4,1.9c0.1,0.1,0.2,0.2,0.4,0.2c0.2,0,0.4-0.1,0.6-0.2l0.2,0.2c-0.2,0.1-0.3,0.2-0.5,0.3
			c-0.1,0.1-0.3,0.2-0.5,0.3C328.3,346.4,328,346.6,327.7,346.8L327.7,346.8z M327.3,339.3l0.6,3.3l1.9-1L327.3,339.3z M312,346.8
			L312,346.8c-0.2,0-0.4,0-0.6-0.1c-0.3-0.1-0.6-0.1-0.9-0.1c-0.4-0.1-0.8-0.2-1.2-0.2c-0.1,0-0.2,0-0.3,0l0.2-0.4l0,0h0.1l0,0
			c0.1,0,0.2,0,0.3,0c0.2,0,0.3-0.1,0.3-0.2v-1.2l-0.2-1.3L307,343l-0.2,0.4l0,0c-0.1,0.2-0.3,0.6-0.4,0.9l0,0l0,0
			c-0.1,0.3-0.3,0.6-0.4,0.8c0.1,0.4,0.4,0.7,0.8,0.8v0.2c-0.2,0-0.4,0-0.6-0.1s-0.4-0.1-0.6-0.1s-0.4,0-0.6-0.1s-0.4-0.1-0.6-0.1
			l0.2-0.2c0.5,0,1-0.3,1.2-0.8c0.4-0.8,0.8-1.6,1.2-2.3l2.3-4.6l0.4,0.2l1.2,6.6c0.1,0.3,0.2,0.5,0.2,0.8s0.1,0.5,0.2,0.7
			c0.1,0.3,0.4,0.5,0.8,0.6L312,346.8L312,346.8z M308.9,339.5L308.9,339.5l-1.5,3.1l2.1,0.4L308.9,339.5L308.9,339.5z M236.2,346.2
			L236.2,346.2l-0.4-0.2l1.4-7.1c0.3-0.6,0.2-1.4-0.3-1.9l0.2-0.2c0.2,0.1,0.4,0.2,0.6,0.4c0.2,0.1,0.4,0.3,0.6,0.4
			c0.4,0.3,0.9,0.5,1.4,0.7l-0.2,0.2c-0.1-0.1-0.3-0.2-0.5-0.2l0,0c-0.2,0-0.4,0.1-0.5,0.2c-0.1,0.3-0.4,1.2-0.6,2l0,0
			c-0.1,0.4-0.2,0.8-0.3,1l-0.6,3.3l2.4-2.1c0.7-0.7,1.4-1.4,2-2.3c0.1-0.1,0.2-0.4,0.1-0.5c0-0.2-0.2-0.3-0.4-0.4v-0.4
			c0.2,0.2,0.4,0.3,0.7,0.5l0,0c0.1,0.1,0.2,0.1,0.3,0.2c0.4,0.1,0.7,0.3,1,0.5v0.2c-0.1-0.1-0.3-0.1-0.5-0.1
			c-0.5,0-0.9,0.4-1.4,0.8c-0.2,0.1-0.3,0.3-0.5,0.4L236.2,346.2L236.2,346.2z M257.3,345.6L257.3,345.6v-0.2c0.1,0,0.2-0.1,0.3-0.1
			c0.3-0.1,0.5-0.2,0.5-0.5c0.1-0.6,0.1-1.1,0-1.7l-0.7-3.4c0-0.3-0.1-0.6-0.1-0.8l0,0c-0.1-0.3-0.1-0.5-0.1-0.8
			c-0.1-0.2-0.3-0.3-0.4-0.3h-0.1c-0.1,0-0.3,0-0.4,0.1l-0.2-0.4c0.1,0,0.1,0,0.2,0c0.5,0,0.9-0.1,1.3-0.2c0.1,0,0.1,0,0.2,0
			c0.4,0,0.9-0.1,1.3-0.2l0.2,0.4c-0.1,0-0.1,0-0.2,0c-0.3,0-0.6,0.2-0.8,0.4c0,0.3,0.1,0.5,0.1,0.8l0,0c0.1,0.3,0.1,0.6,0.1,0.9
			l0.5,3.6c0.2,1.3,0.5,1.7,1.3,1.7c0.2,0,0.4,0,0.6-0.1c0.5-0.1,0.9-0.3,1.3-0.6c0.3-0.4,0.4-1,0.3-1.5l0.4-0.2l0.2,2.3h-0.6
			c-0.9,0.1-1.9,0.3-2.8,0.5C259,345.3,258.1,345.5,257.3,345.6L257.3,345.6z M303.5,345.4L303.5,345.4c-0.6,0-1.2-0.2-1.7-0.4
			c-0.1,0-0.2,0-0.3,0c-0.5,0-1-0.1-1.4-0.2v-0.2l0,0c1.1,0,1.3-0.2,1.5-1.1l0.8-6v-0.1c-0.1-0.1-0.5-0.3-0.8-0.3
			c-0.2,0-0.5-0.1-0.7-0.1c-0.6,0-0.9,0.3-1,1.4l-0.4-0.2l0.4-1.9l6.6,1.2l-0.4,1.9l-0.2-0.2c0.2-0.4,0.1-0.8-0.1-1.2
			c-0.2-0.4-0.6-0.6-1.1-0.6c-0.1,0-0.3,0-0.4,0s-0.2,0-0.3,0c-0.2,0-0.4,0-0.4,0.2l-0.9,6c-0.1,0.3-0.1,0.7,0.1,1s0.5,0.5,0.8,0.6
			L303.5,345.4L303.5,345.4z M297.4,344.5L297.4,344.5c-0.3-0.1-0.5-0.2-0.8-0.2s-0.5-0.1-0.7-0.2c-0.1,0-0.2,0-0.3,0
			c-0.4,0-0.9-0.1-1.3-0.2v-0.2c0.1,0,0.1,0,0.2,0c0.3,0,0.6-0.2,0.8-0.4c0.3-0.5,0.4-1,0.4-1.5l0.6-3.7c0.1-0.5,0.1-1,0-1.6
			c0-0.2-0.1-0.3-0.3-0.4c-0.1-0.1-0.3-0.1-0.4-0.1h-0.1v-0.4c0.5,0.2,1,0.3,1.5,0.4c0.3,0,0.6,0,0.9,0.1s0.6,0.1,0.9,0.1l-0.2,0.2
			h-0.1c-0.3,0-0.6,0.1-0.8,0.4c-0.1,0.3-0.2,0.5-0.2,0.8l0,0c0,0.3-0.1,0.5-0.2,0.8l-0.4,3.7c-0.1,0.5-0.2,1-0.2,1.6
			s0.4,0.6,0.8,0.6L297.4,344.5L297.4,344.5z M264.1,344.4h-0.2v-0.2c0.2,0,0.4,0,0.5-0.1c0.2-0.1,0.2-0.3,0.2-0.5
			c0.1-0.5,0.1-1,0-1.5l-0.7-3.6l0,0c0-0.3-0.1-0.5-0.1-0.8c-0.1-0.2-0.1-0.5-0.1-0.7c-0.2-0.2-0.5-0.4-0.9-0.4h-0.1l-0.2-0.2
			c0.5-0.1,1-0.2,1.4-0.2h0.1c0.3,0,0.6-0.1,0.9-0.1l0,0c0.2-0.1,0.4-0.1,0.6-0.1v0.2c-0.3,0.1-0.6,0.3-0.8,0.6c0,0.5,0.1,1,0.2,1.5
			l0.5,3.6c0,0.5,0.2,1,0.4,1.5c0.2,0.2,0.5,0.4,0.7,0.4c0.1,0,0.1,0,0.2,0v0.4h-1.5C265,344.3,264.6,344.3,264.1,344.4L264.1,344.4
			z M270.3,343.4c-0.8,0-1.7-0.3-2.3-0.8c-0.8-0.7-1.3-1.6-1.4-2.7c-0.3-1-0.1-2.1,0.4-3s1.4-1.5,2.5-1.8c0.3-0.1,0.5-0.1,0.8-0.1
			c0.5,0,1.1,0.1,1.5,0.4v-0.6h0.2l0.5,2.5h-0.2c-0.2-1.2-1.2-2-2.4-2h-0.1c-0.5,0-1,0.3-1.3,0.7c-0.6,1.1-0.8,2.4-0.5,3.7
			c0.4,1.5,1,3.5,2.8,3.5c0.1,0,0.2,0,0.3,0c1.2-0.5,1.9-1.8,1.6-3.1l0.2-0.2l0.5,2.8l-0.4-0.6c-0.5,0.6-1.3,1.1-2.1,1.2
			C270.7,343.4,270.5,343.4,270.3,343.4L270.3,343.4z M230.7,342.9L230.7,342.9c-0.4-0.3-0.9-0.6-1.4-0.9c-0.2-0.1-0.4-0.2-0.6-0.4
			c-0.2-0.1-0.4-0.3-0.6-0.3v-0.4c0.1,0,0.2,0.1,0.3,0.1c0.1,0.1,0.3,0.2,0.5,0.2c0.1,0,0.2-0.1,0.2-0.2c0.5-0.4,0.8-0.9,1.1-1.4
			l1.8-3c0.3-0.5,0.6-1,0.9-1.4c0.2-0.6-0.2-0.8-0.6-0.9l0.2-0.2c0.2,0.2,0.5,0.3,0.7,0.5c0.3,0.1,0.5,0.3,0.7,0.4s0.4,0.2,0.6,0.4
			c0.2,0.1,0.4,0.3,0.6,0.4c0.6,0.2,1,0.7,1.2,1.3c0.2,0.6,0.1,1.2-0.3,1.8c-0.3,0.6-0.9,1-1.6,1.1c-0.1,0-0.2,0-0.4,0
			c-0.6,0-1.1-0.2-1.5-0.6c-0.2-0.1-0.4-0.2-0.6-0.4l-0.9,1.2l0,0c-0.3,0.5-0.5,1-0.7,1.6c-0.1,0.3,0.1,0.5,0.4,0.7
			c0.1,0.1,0.2,0.1,0.2,0.2L230.7,342.9L230.7,342.9z M234.1,335.7c-0.1,0-0.2,0.2-0.4,0.5l-1.4,2.4l0,0c0.1,0.2,0.2,0.3,0.4,0.4
			c0.2,0.2,0.5,0.3,0.8,0.3c0.1,0,0.3,0,0.4-0.1c0.4-0.1,0.8-0.5,0.9-0.9c0.3-0.3,0.5-0.8,0.4-1.2c-0.1-0.5-0.3-0.9-0.8-1.1
			C234.3,335.8,234.2,335.7,234.1,335.7L234.1,335.7z M274,342.6h-0.1v-0.2c0.5-0.1,0.8-0.5,0.9-1c0.1-0.4,0.1-0.8,0.1-1.2l0,0
			c0-0.4,0.1-0.8,0.2-1.2l0.8-5.1h0.4l3,5.8c0.1,0.2,0.2,0.4,0.4,0.7l0,0c0.1,0.2,0.3,0.5,0.4,0.6c0.2,0.1,0.5,0.2,0.7,0.2
			c0.1,0,0.2,0,0.2,0v0.4l0,0c-0.4,0-0.8,0.1-1.2,0.2c-0.3,0-0.6,0.1-0.9,0.1l0,0c-0.2,0-0.4,0.1-0.6,0.1v-0.2
			c0.1-0.1,0.1-0.1,0.2-0.1c0.2-0.1,0.5-0.2,0.3-0.6c0-0.1,0-0.3-0.1-0.4c0-0.1-0.1-0.2-0.1-0.4l-0.8-1.3l-2.5,0.5v0.4l0,0
			c-0.1,0.6-0.2,1.3-0.1,1.9c0,0.4,0.2,0.4,0.4,0.4c0.1,0,0.2,0,0.3,0l0,0c0.1,0,0.2,0,0.2,0v0.4c-0.5,0-0.8,0-1.2,0
			C274.7,342.5,274.3,342.6,274,342.6L274,342.6z M276.2,335.5L276.2,335.5l-0.5,3.3l2.1-0.2L276.2,335.5L276.2,335.5z M335.1,342.4
			L335.1,342.4l-0.2-0.2c0.4-0.2,0.6-0.7,0.4-1.2c-0.3-0.5-0.6-1-1-1.4l-2.7-3.9c-0.2-0.1-0.4-0.1-0.5-0.1c-0.3,0-0.6,0.1-0.8,0.3
			l-0.2-0.4c0.3-0.1,0.6-0.3,0.8-0.6c0.3,0,0.6-0.2,0.8-0.4l7.5,2.5l-2.1-2.9c-0.2-0.2-0.4-0.5-0.6-0.8l0,0
			c-0.2-0.3-0.4-0.5-0.6-0.8c-0.2-0.1-0.4-0.2-0.7-0.2s-0.5,0.1-0.7,0.2l-0.2-0.2l0.4-0.2h0.1c0.2-0.1,0.5-0.2,0.7-0.4
			c0.1-0.4,0.4-0.6,0.8-0.8l0.2,0.2c-0.1,0.1-0.1,0.2-0.2,0.3c-0.2,0.1-0.3,0.4-0.2,0.7c0.3,0.4,0.5,0.8,0.8,1.2
			c0.2,0.2,0.4,0.5,0.5,0.7l3.1,4.3l-0.2,0.2c-0.4,0-0.8-0.2-1.2-0.4l-7-2.3l2.5,3.5c0.3,0.5,0.7,0.9,1.2,1.4c0.1,0,0.3,0.1,0.4,0.1
			c0.3,0,0.5-0.1,0.8-0.3v0.2c-0.2,0.4-0.6,0.6-0.9,0.8C335.7,341.8,335.4,342.1,335.1,342.4L335.1,342.4z M227.5,340.8L227.5,340.8
			l-4.9-3.2l0.2-0.2c0.2,0.1,0.4,0.2,0.6,0.2c0.1,0,0.3,0,0.4-0.1c0.1-0.1,0.2-0.2,0.3-0.4V337c0.2-0.3,0.5-0.7,0.8-1l1.8-2.8l0,0
			c0.3-0.5,0.5-1,0.9-1.4c0.2-0.6-0.3-0.8-0.6-0.9l0.4-0.2l4.2,2.7l-1.1,1.6l-0.2-0.2c0.7-1.2,0.3-1.6-0.7-2.3l-0.6-0.4
			c-0.1-0.1-0.1-0.1-0.2-0.1s-0.2,0.1-0.4,0.4l-1.6,2.6c0.3,0.3,0.6,0.5,1,0.5c0.1,0,0.1,0,0.2,0c0.5-0.1,0.9-0.4,1.1-0.8h0.2
			c-0.2,0.3-0.3,0.5-0.5,0.8c-0.1,0.2-0.3,0.4-0.4,0.6c-0.3,0.5-0.5,1-0.9,1.4l-0.2-0.2c0.3-0.3,0.4-0.8,0.3-1.2
			c-0.1-0.4-0.4-0.6-1-0.9l-1.1,1.8c-0.3,0.4-0.4,0.8-0.5,1.2c0,0.5,0.4,0.9,0.8,1.1c0.3,0.3,0.7,0.4,1.1,0.4c0.1,0,0.1,0,0.2,0
			c0.5-0.1,0.9-0.3,1.2-0.7h0.2L227.5,340.8L227.5,340.8L227.5,340.8L227.5,340.8z M341.3,337.9L341.3,337.9l-0.2-0.4
			c0.3-0.3,0.5-0.7,0.4-1.2c-0.3-0.8-0.6-1.7-0.8-2.5l-1.5-5l0.2-0.2l5.6,3.9c0.3,0.3,0.7,0.6,1.2,0.8c0.1,0,0.3,0.1,0.4,0.1
			c0.3,0,0.5-0.1,0.8-0.3v0.4c-0.4,0.2-0.8,0.4-1.2,0.8c-0.2,0.2-0.4,0.3-0.6,0.5l0,0c-0.2,0.1-0.4,0.3-0.6,0.5l-0.2-0.2
			c0.3-0.2,0.5-0.6,0.4-1c-0.1-0.1-0.2-0.2-0.4-0.3l0,0l0,0c-0.1-0.1-0.3-0.2-0.4-0.3l-1.2-0.8l-2.1,1.5l0.2,0.2l0,0
			c0.1,0.7,0.3,1.3,0.6,1.9c0.1,0.1,0.3,0.1,0.4,0.1h0.1c0.2,0,0.3-0.2,0.4-0.3l0.2,0.4c-0.3,0.2-0.6,0.4-0.9,0.6
			C341.8,337.3,341.5,337.6,341.3,337.9L341.3,337.9L341.3,337.9z M339.9,330.3l1.2,3.3l1.7-1.4L339.9,330.3z M222.3,337.3
			L222.3,337.3c-0.2-0.2-0.4-0.4-0.6-0.6c-0.1-0.1-0.3-0.2-0.4-0.2c-0.1,0-0.3-0.1-0.4-0.2l0.1-1v-3.1c0.1-0.4-0.1-0.8-0.4-0.9
			l-0.9,1.2c-0.1,0.2-0.3,0.5-0.4,0.8c-0.2,0.3-0.3,0.5-0.5,0.8c0,0.4,0.3,0.7,0.6,0.8l-0.2,0.2c-0.2-0.1-0.4-0.2-0.6-0.4l0,0
			c-0.2-0.1-0.4-0.2-0.6-0.3c-0.4-0.4-0.9-0.7-1.4-0.9l0.2-0.2c0.2,0.1,0.4,0.2,0.6,0.2c0.1,0,0.3,0,0.4-0.1
			c0.5-0.4,0.8-0.9,1.1-1.4l2-3c0.3-0.4,0.6-0.9,0.9-1.4c0.1-0.3-0.1-0.5-0.3-0.7l-0.1-0.1v-0.4c0.3,0.2,0.5,0.4,0.8,0.5l0,0
			c0.2,0.2,0.5,0.4,0.8,0.5c0.4,0.2,0.7,0.4,1,0.7c0.6,0.2,1,0.7,1.2,1.3c0.2,0.6,0.1,1.2-0.3,1.8c-0.3,0.5-0.7,0.9-1.3,1
			c-0.2,0-0.3,0.1-0.5,0.1c-0.4,0-0.8-0.1-1.1-0.3v3.9l0,0c-0.1,0.4,0.1,0.9,0.5,1.2L222.3,337.3L222.3,337.3z M220.9,331L220.9,331
			l0.1,0.1c0.4,0.3,0.8,0.6,1.3,0.6c0.4,0,0.8-0.3,1.3-0.9c0.3-0.3,0.4-0.7,0.4-1.1s-0.2-0.8-0.5-1c-0.2-0.1-0.4-0.3-0.6-0.4
			c-0.1,0-0.1,0-0.2,0.1c0,0.1-0.1,0.1-0.2,0.1L220.9,331L220.9,331z M350.4,283.4c-0.5,0-0.9-0.1-1.3-0.4c-0.1-0.7-0.4-1.3-0.8-1.9
			c0.1-0.7,0.5-1.2,1.1-1.5l0,0l0.2-0.1l0.2-0.1c0.2-0.1,0.4-0.1,0.6-0.1c0.9,0,1.6,0.5,1.9,1.4c0,0,0,0,0,0.1
			c-0.5,0.7-1.1,1.3-1.8,1.8h0.1c0.4,0,0.8,0.1,1.1,0.3c-0.2,0.2-0.4,0.3-0.6,0.4C350.9,283.3,350.7,283.4,350.4,283.4L350.4,283.4z
			"/>
	</g>
	<g>
		<g>
			<path class="st4" d="M381,322.4v-84.8h17l24,50.8l24-50.8h17v84.8h-9.4v-74.8H452l-24.6,50.8h-10.5l-24.6-50.8h-1.7v74.8H381
				L381,322.4z"/>
			<path class="st4" d="M494,296.9c0,12.3,6.6,18.4,19.8,18.4c6.9,0,12-1.4,15.5-4.3s5.2-7.6,5.2-14v-59.3h9.3v59.1
				c0,9.5-2.5,16.3-7.5,20.6c-5,4.2-12.4,6.4-22.2,6.4s-17.2-2.1-22.1-6.4c-4.9-4.2-7.4-11.1-7.4-20.6v-59.1h9.4L494,296.9
				L494,296.9z"/>
			<path class="st4" d="M574.8,289.9v32.5h-9.4v-84.8h31.4c9,0,15.8,2.1,20.3,6.3s6.8,10.7,6.8,19.5c0,13.1-5.2,21.3-15.6,24.6
				l16.3,34.4h-10.4L598.8,290L574.8,289.9L574.8,289.9L574.8,289.9z M596.9,281.6c11.5,0,17.3-6,17.3-17.8
				c0-11.9-5.8-17.8-17.4-17.8h-21.9v35.7L596.9,281.6L596.9,281.6z"/>
		</g>
	</g>
	<g>
		<path class="st5" d="M215.8,395v-18.6h3.7l5.3,15.7l5.3-15.7h3.7V395h-2.1v-16.4h-0.4l-5.4,15.7h-2.3l-5.4-15.7h-0.4V395H215.8z"
			/>
		<path class="st5" d="M237.3,378.5v-2.3h2v2.3H237.3z M237.3,395v-13.4h2V395H237.3z"/>
		<path class="st5" d="M244.6,395h-2v-13.4h2v0.9c1.3-0.8,2.7-1.2,4.2-1.2c1.8,0,3,0.5,3.6,1.4c0.8,1.6,1.1,3.4,0.9,5.2v7.1h-2v-7
			c0.1-1.3-0.1-2.6-0.5-3.8c-0.5-0.8-1.4-1.2-2.4-1.1c-0.6,0-1.2,0.1-1.8,0.3c-0.5,0.1-1,0.3-1.4,0.5l-0.5,0.2L244.6,395z"/>
		<path class="st5" d="M256.4,378.5v-2.3h2v2.3H256.4z M256.4,395v-13.4h2V395H256.4z"/>
		<path class="st5" d="M265.9,383.1c-1.9,0-2.9,0.7-2.9,2c0,0.5,0.2,1,0.7,1.3c1,0.4,2,0.7,3.1,0.8c1.2,0.1,2.4,0.5,3.4,1.2
			c0.8,0.7,1.1,1.8,1,2.8c0.1,1.2-0.4,2.3-1.3,3c-1.2,0.7-2.5,1-3.9,0.9c-1.3,0-2.6-0.1-3.9-0.4l-0.8-0.1l0.1-1.8
			c1.5,0.3,3.1,0.4,4.6,0.5c0.8,0,1.6-0.1,2.4-0.5c0.6-0.4,0.9-1,0.8-1.7c0.1-0.6-0.2-1.2-0.7-1.6c-1-0.4-2-0.7-3.1-0.8
			c-1.2-0.1-2.3-0.5-3.4-1.1c-0.7-0.7-1.1-1.7-1-2.7c-0.1-1.1,0.4-2.2,1.4-2.9c1-0.7,2.2-1,3.4-0.9c1.4,0,2.8,0.2,4.1,0.4l0.8,0.1
			l-0.1,1.7C269.1,383.3,267.5,383.1,265.9,383.1z"/>
		<path class="st5" d="M280.5,383.3h-4.3v6.4c-0.1,1,0,2,0.3,3c0.2,0.5,0.8,0.7,1.6,0.7l2.4-0.2l0.1,1.7c-0.9,0.2-1.8,0.3-2.7,0.3
			c-1.1,0.1-2.1-0.3-2.9-1c-0.7-1.2-0.9-2.5-0.8-3.9v-7.1h-1.9v-1.7h1.9v-4.1h2v4.1h4.3V383.3L280.5,383.3z"/>
		<path class="st5" d="M291.5,393.3l0.8-0.1l0.1,1.6c-1.7,0.3-3.5,0.4-5.2,0.4c-1.6,0.2-3.1-0.5-4.1-1.7c-0.9-1.6-1.3-3.4-1.2-5.2
			c0-4.7,1.9-7.1,5.6-7.1c1.5-0.1,3,0.4,4.1,1.5c1,1.4,1.5,3.1,1.3,4.8l-0.1,1.5h-8.9c-0.1,1.1,0.2,2.3,0.8,3.3
			c0.7,0.8,1.8,1.2,2.8,1.1C288.8,393.4,290.1,393.4,291.5,393.3z M290.8,387.5c0.1-1.2-0.2-2.4-0.8-3.5c-0.6-0.7-1.6-1.1-2.6-1
			c-1-0.1-2,0.3-2.7,1.1c-0.7,1-1,2.2-0.9,3.4H290.8z"/>
		<path class="st5" d="M295.4,395v-13.4h2v1.8c1.5-1,3.1-1.8,4.9-2.1v2c-0.8,0.2-1.6,0.4-2.4,0.7c-0.6,0.2-1.3,0.5-1.9,0.8l-0.7,0.4
			v9.9L295.4,395z"/>
		<path class="st5" d="M303.2,388.2c0-2.4,0.4-4.2,1.3-5.3c0.9-1.1,2.4-1.6,4.4-1.6c2.1,0,3.6,0.5,4.4,1.6c0.9,1.1,1.3,2.8,1.3,5.3
			s-0.4,4.2-1.2,5.3c-0.8,1.1-2.3,1.7-4.5,1.7s-3.7-0.6-4.5-1.7C303.5,391.9,303,390.1,303.2,388.2z M305.3,388.2
			c-0.1,1.4,0.1,2.8,0.7,4.1c0.5,0.8,1.5,1.2,3,1.2s2.5-0.4,3-1.2c0.6-1.3,0.8-2.7,0.7-4.1c0.1-1.4-0.1-2.8-0.8-4.1
			c-0.7-0.8-1.8-1.2-2.9-1.1c-1.1-0.1-2.2,0.3-2.9,1.1C305.4,385.4,305.1,386.8,305.3,388.2L305.3,388.2L305.3,388.2z"/>
		<path class="st5" d="M333,375.7V395h-2v-1c-1.2,0.7-2.6,1.1-4.1,1.2c-0.6,0-1.3-0.1-1.9-0.3c-0.6-0.2-1.1-0.5-1.5-1
			c-1-1-1.4-2.8-1.4-5.3c0-2.6,0.4-4.5,1.3-5.6c1.1-1.3,2.7-1.9,4.3-1.7c1.1,0,2.2,0.1,3.3,0.4v-5.9L333,375.7z M326,393.2
			c0.4,0.1,0.8,0.2,1.3,0.2c0.6,0,1.2-0.1,1.7-0.3c0.5-0.1,1-0.3,1.5-0.5l0.5-0.2v-9.1c-1.1-0.2-2.1-0.3-3.2-0.3
			c-1.1-0.1-2.2,0.4-2.8,1.3c-0.6,1.3-0.9,2.6-0.8,4c0,2.1,0.3,3.5,0.9,4.2C325.3,392.8,325.6,393.1,326,393.2L326,393.2z"/>
		<path class="st5" d="M345.4,393.3l0.8-0.1v1.6c-1.7,0.3-3.5,0.4-5.2,0.4c-1.6,0.2-3.1-0.5-4.1-1.7c-0.9-1.6-1.3-3.4-1.2-5.2
			c0-4.7,1.9-7.1,5.6-7.1c1.5-0.1,3,0.4,4.1,1.5c1,1.4,1.5,3.1,1.4,4.8l-0.1,1.5h-8.8c-0.1,1.1,0.2,2.3,0.8,3.3
			c0.7,0.8,1.8,1.2,2.8,1.1C342.7,393.4,344,393.4,345.4,393.3z M344.7,387.5c0.1-1.2-0.2-2.4-0.8-3.5c-0.6-0.7-1.6-1.1-2.6-1
			c-1-0.1-2,0.3-2.7,1.1c-0.7,1-1,2.2-0.9,3.4H344.7z"/>
		<path class="st5" d="M349.4,395v-19.3h2V395H349.4L349.4,395z"/>
		<path class="st5" d="M355,395v-19.3h2.1V395H355L355,395z"/>
		<path class="st5" d="M359.9,381.8l1.2-5.9h2.1l-1.7,5.9H359.9z"/>
		<path class="st5" d="M367.9,389.4c0,2.7,1.4,4,4.3,4c1.2,0.1,2.4-0.3,3.4-0.9c0.8-0.8,1.3-1.9,1.1-3.1v-13h2v12.9
			c0.2,1.7-0.4,3.3-1.6,4.5c-1.4,1-3.1,1.5-4.9,1.4c-1.7,0.1-3.4-0.4-4.8-1.4c-1.2-1.2-1.8-2.8-1.6-4.5v-12.9h2.1V389.4L367.9,389.4
			z"/>
		<path class="st5" d="M384.3,395h-2v-13.4h2v0.9c1.3-0.8,2.7-1.2,4.2-1.2c1.8,0,3,0.5,3.6,1.4s0.9,2.7,0.9,5.2v7.1h-2v-7
			c0.1-1.3-0.1-2.6-0.6-3.8c-0.5-0.8-1.4-1.2-2.4-1.1c-0.6,0-1.2,0.1-1.8,0.3c-0.5,0.1-1,0.3-1.5,0.5l-0.5,0.2L384.3,395z"/>
		<path class="st5" d="M396.2,378.5v-2.3h2v2.3H396.2z M396.2,395v-13.4h2V395H396.2z"/>
		<path class="st5" d="M400.2,381.5h2.2l3.1,11.7h1l3.3-11.7h2.1L408,395h-4L400.2,381.5z"/>
		<path class="st5" d="M422.6,393.3l0.8-0.1l0.1,1.6c-1.7,0.3-3.5,0.4-5.2,0.4c-1.6,0.2-3.1-0.5-4.1-1.7c-0.9-1.6-1.3-3.4-1.2-5.2
			c0-4.7,1.9-7.1,5.6-7.1c1.5-0.1,3,0.4,4.1,1.5c1,1.4,1.5,3.1,1.3,4.8l-0.1,1.5H415c-0.1,1.1,0.2,2.3,0.8,3.3
			c0.7,0.8,1.8,1.2,2.8,1.1C419.9,393.4,421.2,393.4,422.6,393.3z M421.9,387.5c0.1-1.2-0.2-2.4-0.8-3.5c-0.6-0.7-1.6-1.1-2.6-1
			c-1-0.1-2,0.3-2.7,1.1c-0.7,1-1,2.2-0.9,3.4H421.9z"/>
		<path class="st5" d="M426.5,395v-13.4h2v1.8c1.5-1,3.1-1.8,4.9-2.1v2c-0.8,0.2-1.6,0.4-2.4,0.7c-0.6,0.2-1.3,0.5-1.9,0.8l-0.7,0.4
			v9.9L426.5,395z"/>
		<path class="st5" d="M439.4,383.1c-2,0-2.9,0.7-2.9,2c0,0.5,0.2,1,0.7,1.3c1,0.4,2,0.7,3.1,0.8c1.2,0.1,2.4,0.5,3.4,1.2
			c0.8,0.7,1.1,1.8,1,2.8c0.1,1.2-0.4,2.3-1.3,3c-1.2,0.7-2.5,1-3.9,0.9c-1.3,0-2.6-0.1-3.9-0.4l-0.8-0.1l0.1-1.8
			c1.5,0.3,3.1,0.4,4.6,0.5c0.8,0,1.6-0.1,2.4-0.5c0.6-0.4,0.9-1,0.8-1.7c0.1-0.6-0.2-1.2-0.7-1.6c-1-0.4-2-0.7-3.1-0.8
			c-1.2-0.1-2.3-0.5-3.3-1.1c-0.7-0.7-1.1-1.7-1-2.7c-0.1-1.1,0.4-2.2,1.4-2.9c1-0.7,2.2-1,3.4-0.9c1.4,0,2.8,0.2,4.1,0.4l0.8,0.1
			l-0.1,1.7C442.5,383.3,440.9,383.1,439.4,383.1z"/>
		<path class="st5" d="M447,378.5v-2.3h2v2.3H447z M447,395v-13.4h2V395H447z"/>
		<path class="st5" d="M459.3,383.3H455v6.4c-0.1,1,0,2.1,0.3,3c0.2,0.5,0.8,0.7,1.6,0.7l2.4-0.2l0.1,1.7c-0.9,0.2-1.8,0.3-2.7,0.3
			c-1.1,0.1-2.1-0.3-2.9-1c-0.7-1.2-0.9-2.5-0.8-3.9v-7.1h-1.9v-1.7h1.9v-4.1h2v4.1h4.3V383.3L459.3,383.3z"/>
		<path class="st5" d="M470.6,385.6v6.9c0,0.7,0.6,1.1,1.6,1.2l-0.1,1.6c-1.2,0.1-2.3-0.3-3.2-1.1c-1.5,0.7-3.2,1.1-4.8,1.1
			c-1.1,0.1-2.1-0.3-2.8-1.1c-0.7-0.8-1-1.9-0.9-2.9c-0.1-1.1,0.3-2.1,1-2.9c0.9-0.7,2-1.1,3.1-1.1l4.2-0.4v-1.2
			c0.1-0.7-0.1-1.4-0.6-2c-0.4-0.4-1-0.6-1.6-0.6c-1.5,0-3,0.1-4.4,0.3l-0.8,0.1l-0.1-1.5c1.7-0.4,3.5-0.6,5.2-0.6c2-0.4,4,1,4.3,3
			C470.8,384.7,470.8,385.2,470.6,385.6L470.6,385.6z M462.4,391c0,1.6,0.7,2.5,2,2.5c1.2,0,2.4-0.2,3.6-0.6l0.6-0.2v-4.4l-4,0.4
			c-0.6,0-1.3,0.3-1.7,0.7C462.5,389.8,462.3,390.4,462.4,391L462.4,391L462.4,391z M463.2,375.1l5.8,2.6l-0.6,1.4l-5.9-2.3
			L463.2,375.1z"/>
		<path class="st5" d="M488.4,393.3l0.8-0.1l0.1,1.6c-1.7,0.3-3.5,0.4-5.2,0.4c-1.6,0.2-3.1-0.5-4.1-1.7c-0.9-1.6-1.3-3.4-1.2-5.2
			c0-4.7,1.9-7.1,5.6-7.1c1.5-0.1,3,0.4,4,1.5c1,1.4,1.5,3.1,1.4,4.8l-0.1,1.5h-8.9c-0.1,1.1,0.2,2.3,0.8,3.3
			c0.7,0.8,1.8,1.2,2.8,1.1C485.7,393.4,487.1,393.4,488.4,393.3z M487.7,387.5c0.1-1.2-0.2-2.4-0.8-3.5c-0.6-0.7-1.6-1.1-2.6-1
			c-1-0.1-2,0.3-2.7,1.1c-0.7,1-1,2.2-0.9,3.4H487.7z"/>
		<path class="st5" d="M507.9,375.7V395h-2v-1c-1.2,0.7-2.6,1.1-4.1,1.2c-0.6,0-1.3-0.1-1.9-0.3c-0.6-0.2-1.1-0.5-1.5-1
			c-1-1-1.4-2.8-1.4-5.3c0-2.6,0.4-4.5,1.3-5.6c1.1-1.3,2.7-1.9,4.3-1.7c1.1,0,2.2,0.1,3.3,0.4v-5.9L507.9,375.7z M500.9,393.2
			c0.4,0.1,0.8,0.2,1.2,0.2c0.6,0,1.2-0.1,1.7-0.3c0.5-0.1,1-0.3,1.5-0.5l0.5-0.2v-9.1c-1.1-0.2-2.1-0.3-3.2-0.3
			c-1.1-0.1-2.2,0.4-2.8,1.3c-0.6,1.3-0.9,2.6-0.8,4c0,2.1,0.3,3.5,0.9,4.2C500.2,392.8,500.5,393.1,500.9,393.2z"/>
		<path class="st5" d="M520.3,393.3l0.8-0.1v1.6c-1.7,0.3-3.5,0.4-5.2,0.4c-1.6,0.2-3.1-0.5-4.1-1.7c-0.9-1.6-1.3-3.4-1.2-5.2
			c0-4.7,1.9-7.1,5.6-7.1c1.5-0.1,3,0.4,4.1,1.5c1,1.4,1.5,3.1,1.3,4.8l-0.1,1.5h-8.8c-0.1,1.1,0.2,2.3,0.8,3.3
			c0.7,0.8,1.8,1.2,2.8,1.1C517.6,393.4,518.9,393.4,520.3,393.3z M519.6,387.5c0.1-1.2-0.2-2.4-0.8-3.5c-0.6-0.7-1.6-1.1-2.6-1
			c-1-0.1-2,0.3-2.7,1.1c-0.7,1-1,2.2-0.9,3.4H519.6z"/>
		<path class="st5" d="M524.3,395v-19.3h2V395H524.3L524.3,395z"/>
		<path class="st5" d="M529.9,395v-19.3h2V395H529.9L529.9,395z"/>
		<path class="st5" d="M544.8,385.6v6.9c0,0.7,0.6,1.1,1.6,1.2l-0.1,1.6c-1.2,0.1-2.3-0.3-3.2-1.1c-1.5,0.7-3.2,1.1-4.8,1.1
			c-1.1,0.1-2.1-0.3-2.8-1.1c-0.7-0.8-1-1.9-1-3c-0.1-1.1,0.3-2.1,1-2.9c0.9-0.7,2-1.1,3.1-1.1l4.2-0.4v-1.2c0.1-0.7-0.1-1.4-0.6-2
			c-0.4-0.4-1-0.6-1.6-0.6c-1.5,0-3,0.1-4.5,0.3l-0.8,0.1l-0.1-1.5c1.7-0.4,3.5-0.6,5.2-0.6c2-0.4,4,1,4.3,3
			C544.9,384.7,544.9,385.1,544.8,385.6L544.8,385.6z M536.5,391c0,1.6,0.7,2.5,2,2.5c1.2,0,2.4-0.2,3.6-0.6l0.6-0.2v-4.4l-4,0.4
			c-0.6,0-1.3,0.3-1.7,0.7C536.7,389.8,536.5,390.4,536.5,391L536.5,391z"/>
		<path class="st5" d="M555.9,387.8v7.1h-2.1v-18.6h6.9c1.6-0.1,3.2,0.4,4.4,1.4c1.1,1.1,1.6,2.7,1.5,4.3c0,2.9-1.1,4.7-3.4,5.4
			l3.6,7.5h-2.3l-3.3-7.1L555.9,387.8z M560.8,386c2.5,0,3.8-1.3,3.8-3.9s-1.3-3.9-3.8-3.9H556v7.8H560.8L560.8,386z"/>
		<path class="st5" d="M569.4,378.5v-2.3h2v2.3H569.4z M569.4,395v-13.4h2V395H569.4z"/>
		<path class="st5" d="M579.8,381.3c1,0,2,0.1,3,0.3l0.6,0.1l-0.1,1.6c-1.1-0.1-2.1-0.2-3.2-0.3c-1.1-0.1-2.3,0.3-3.1,1.1
			c-0.7,1.2-0.9,2.6-0.8,4c-0.1,1.4,0.1,2.8,0.8,4.1c0.5,0.8,1.6,1.2,3.2,1.2l3.2-0.2l0.1,1.7c-1.2,0.2-2.5,0.3-3.7,0.4
			c-2.1,0-3.5-0.5-4.3-1.6s-1.2-2.9-1.2-5.4c0-2.6,0.4-4.3,1.3-5.4C576.6,381.7,578.1,381.1,579.8,381.3z"/>
		<path class="st5" d="M594.8,393.3l0.8-0.1l0.1,1.6c-1.7,0.3-3.5,0.4-5.2,0.4c-1.6,0.2-3.1-0.5-4.1-1.7c-0.9-1.6-1.4-3.4-1.2-5.2
			c0-4.7,1.9-7.1,5.6-7.1c1.5-0.1,3,0.4,4.1,1.5c1,1.4,1.5,3.1,1.3,4.8l-0.1,1.5h-8.9c-0.1,1.1,0.2,2.3,0.8,3.3
			c0.7,0.8,1.8,1.2,2.8,1.1C592.1,393.4,593.4,393.4,594.8,393.3z M594.1,387.5c0.1-1.2-0.2-2.4-0.8-3.5c-0.6-0.7-1.6-1.1-2.6-1
			c-1-0.1-2,0.3-2.7,1.1c-0.7,1-1,2.2-0.9,3.4H594.1z"/>
		<path class="st5" d="M598.6,395v-13.4h1.9v1.8c1.5-1,3.1-1.8,4.9-2.1v2c-0.8,0.2-1.6,0.4-2.4,0.7c-0.6,0.2-1.3,0.5-1.9,0.8
			l-0.7,0.4v9.9L598.6,395z"/>
		<path class="st5" d="M612.1,381.3c1,0,2,0.1,3,0.3l0.7,0.1l-0.1,1.6c-1-0.1-2.1-0.2-3.2-0.3c-1.1-0.1-2.3,0.3-3.1,1.1
			c-0.7,1.2-0.9,2.6-0.8,4c-0.1,1.4,0.1,2.8,0.8,4.1c0.5,0.8,1.6,1.2,3.2,1.2l3.2-0.2l0.1,1.7c-1.2,0.2-2.5,0.3-3.7,0.4
			c-2.1,0-3.5-0.5-4.3-1.6s-1.2-2.9-1.2-5.4c0-2.6,0.4-4.3,1.3-5.4C608.9,381.7,610.5,381.1,612.1,381.3z"/>
		<path class="st5" d="M627.6,385.6v6.9c0.1,0.7,0.6,1.1,1.6,1.2l-0.1,1.6c-1.2,0.1-2.3-0.3-3.2-1.1c-1.5,0.7-3.2,1.1-4.8,1.1
			c-1.1,0.1-2.1-0.3-2.8-1.1c-0.7-0.8-1-1.9-1-3c-0.1-1.1,0.3-2.1,1-2.9c0.9-0.7,2-1.1,3.1-1.1l4.2-0.4v-1.2c0.1-0.7-0.1-1.4-0.6-2
			c-0.4-0.4-1-0.6-1.6-0.6c-1.5,0-3,0.1-4.5,0.3l-0.8,0.1l-0.1-1.5c1.7-0.4,3.5-0.6,5.2-0.6c2-0.4,4,1,4.3,3
			C627.7,384.7,627.7,385.1,627.6,385.6L627.6,385.6z M619.4,391c0,1.6,0.7,2.5,2,2.5c1.2,0,2.4-0.2,3.6-0.6l0.6-0.2v-4.4l-4,0.4
			c-0.6,0-1.3,0.3-1.7,0.7C619.5,389.8,619.3,390.4,619.4,391L619.4,391z"/>
	</g>
</g>
</svg>
